<svg width="473" height="214" viewBox="0 0 473 214" fill="none" xmlns="http://www.w3.org/2000/svg">
<path fill-rule="evenodd" clip-rule="evenodd" d="M27.3931 0C27.2627 10.491 26.5466 16.3875 22.6118 20.3223C18.677 24.257 12.7806 24.9732 2.28955 25.1035V26.6546C12.7806 26.7849 18.677 27.501 22.6118 31.4358C26.5466 35.3706 27.2628 41.2671 27.3931 51.7581H28.9441C29.0744 41.2671 29.7906 35.3706 33.7254 31.4358C37.6602 27.501 43.5566 26.7849 54.0476 26.6545V25.1035C43.5566 24.9732 37.6601 24.257 33.7253 20.3222C29.7906 16.3875 29.0744 10.491 28.9441 0H27.3931Z" fill="white"/>
<path d="M71.898 53.4182V45.2879H92.7565V53.4182H99.0926V40.0172H95.4479V6.31835H71.6176L70.9448 25.6629C70.7205 31.9429 70.0477 37.0454 68.2534 40.0172H65.562V53.4182H71.898ZM76.8883 26.5601L77.393 11.5891H88.6633V40.0172H74.6455C75.823 37.3818 76.6641 32.8401 76.8883 26.5601Z" fill="white"/>
<path d="M110.478 40.5779C107.057 40.5779 103.693 39.3443 101.899 37.9986V43.4375C103.188 44.5029 106.441 45.8486 111.263 45.8486C118.384 45.8486 122.14 42.6525 122.14 36.9893C122.14 33.6811 120.066 31.4383 116.365 30.6533C119.842 29.5319 121.299 27.0647 121.299 23.9247C121.299 19.1587 117.543 16.5233 111.487 16.5233C107.113 16.5233 104.254 17.869 102.628 18.8783V24.3172C104.422 23.1397 106.889 21.794 110.534 21.794C113.001 21.794 114.571 22.9715 114.571 25.0462C114.571 27.2329 113.225 28.4104 110.478 28.4104H106.272V33.4568H110.478C113.898 33.4568 115.244 34.4661 115.244 36.9333C115.244 39.1761 113.618 40.5779 110.478 40.5779Z" fill="white"/>
<path d="M147.387 43.3815V37.9425C145.312 39.3443 141.835 40.5779 138.583 40.5779C133.705 40.5779 131.855 38.279 131.574 33.569H147.667V30.0365C147.667 20.224 143.349 16.5233 136.677 16.5233C128.547 16.5233 124.678 22.7472 124.678 31.2701C124.678 41.0825 129.5 45.8486 138.023 45.8486C142.284 45.8486 145.424 44.7272 147.387 43.3815ZM136.565 21.794C139.873 21.794 140.882 24.5415 140.882 28.074V28.6347H131.574C131.743 24.149 133.369 21.794 136.565 21.794Z" fill="white"/>
<path d="M167.725 17.084V28.2422H158.81V17.084H152.137V45.2879H158.81V33.5129H167.725V45.2879H174.398V17.084H167.725Z" fill="white"/>
<path d="M24.7162 125.449V127.048C24.7162 128.949 24.4786 130.653 24.0034 132.159C23.5282 133.666 22.8444 134.947 21.952 136.001C21.0596 137.056 19.9875 137.862 18.7358 138.418C17.4956 138.974 16.1048 139.252 14.5634 139.252C13.0682 139.252 11.6948 138.974 10.4431 138.418C9.20298 137.862 8.12511 137.056 7.2095 136.001C6.30549 134.947 5.60429 133.666 5.10592 132.159C4.60755 130.653 4.35837 128.949 4.35837 127.048V125.449C4.35837 123.548 4.60176 121.85 5.08854 120.355C5.58691 118.848 6.2881 117.568 7.19212 116.513C8.09614 115.447 9.16821 114.635 10.4083 114.079C11.6601 113.523 13.0335 113.245 14.5286 113.245C16.0701 113.245 17.4609 113.523 18.701 114.079C19.9527 114.635 21.0248 115.447 21.9172 116.513C22.8212 117.568 23.5108 118.848 23.986 120.355C24.4728 121.85 24.7162 123.548 24.7162 125.449ZM21.3957 127.048V125.414C21.3957 123.907 21.2392 122.574 20.9263 121.415C20.6249 120.256 20.1787 119.283 19.5876 118.495C18.9965 117.707 18.2722 117.11 17.4145 116.704C16.5684 116.298 15.6065 116.096 14.5286 116.096C13.4855 116.096 12.5409 116.298 11.6948 116.704C10.8604 117.11 10.1418 117.707 9.53909 118.495C8.948 119.283 8.4902 120.256 8.16568 121.415C7.84116 122.574 7.6789 123.907 7.6789 125.414V127.048C7.6789 128.567 7.84116 129.911 8.16568 131.082C8.4902 132.241 8.9538 133.22 9.55648 134.02C10.1707 134.808 10.8951 135.405 11.7296 135.81C12.5757 136.216 13.5203 136.419 14.5634 136.419C15.6528 136.419 16.6206 136.216 17.4667 135.81C18.3127 135.405 19.0255 134.808 19.605 134.02C20.1961 133.22 20.6423 132.241 20.9437 131.082C21.245 129.911 21.3957 128.567 21.3957 127.048ZM36.7424 120.094V138.905H33.5088V120.094H36.7424ZM43.0532 120.094V122.702H27.3198V120.094H43.0532ZM49.5336 120.094V138.905H46.3174V120.094H49.5336ZM61.877 120.094L52.9585 130.873H48.4558L47.969 128.057H51.6546L57.9654 120.094H61.877ZM58.4174 138.905L51.4981 130.386L53.5669 128.057L62.5028 138.905H58.4174ZM68.34 123.71V146.137H65.1064V120.094H68.0619L68.34 123.71ZM81.0137 129.343V129.708C81.0137 131.076 80.8514 132.345 80.5269 133.515C80.2024 134.674 79.7272 135.683 79.1013 136.54C78.4871 137.398 77.7279 138.065 76.8239 138.54C75.9199 139.015 74.8826 139.252 73.712 139.252C72.5182 139.252 71.4635 139.055 70.5479 138.661C69.6323 138.267 68.8558 137.694 68.2183 136.94C67.5809 136.187 67.0709 135.283 66.6885 134.228C66.3176 133.174 66.0626 131.986 65.9235 130.664V128.717C66.0626 127.326 66.3234 126.08 66.7058 124.979C67.0883 123.878 67.5925 122.94 68.2183 122.163C68.8558 121.375 69.6265 120.778 70.5305 120.372C71.4346 119.955 72.4777 119.747 73.6598 119.747C74.842 119.747 75.8909 119.978 76.8065 120.442C77.7221 120.894 78.4929 121.543 79.1187 122.389C79.7446 123.235 80.214 124.249 80.5269 125.431C80.8514 126.602 81.0137 127.906 81.0137 129.343ZM77.7801 129.708V129.343C77.7801 128.404 77.6816 127.523 77.4845 126.701C77.2875 125.866 76.9804 125.136 76.5631 124.51C76.1575 123.873 75.6359 123.374 74.9985 123.015C74.361 122.644 73.6019 122.459 72.721 122.459C71.9097 122.459 71.2028 122.598 70.6001 122.876C70.009 123.154 69.5048 123.531 69.0876 124.006C68.6703 124.469 68.3284 125.003 68.0619 125.605C67.8069 126.196 67.6156 126.811 67.4882 127.448V131.951C67.72 132.762 68.0445 133.527 68.4617 134.246C68.879 134.953 69.4353 135.526 70.1307 135.967C70.8261 136.396 71.7011 136.61 72.7558 136.61C73.6251 136.61 74.3726 136.43 74.9985 136.071C75.6359 135.7 76.1575 135.196 76.5631 134.559C76.9804 133.921 77.2875 133.191 77.4845 132.368C77.6816 131.534 77.7801 130.647 77.7801 129.708ZM84.0867 129.708V129.308C84.0867 127.952 84.2837 126.695 84.6777 125.536C85.0718 124.365 85.6397 123.351 86.3815 122.493C87.1232 121.624 88.0215 120.952 89.0761 120.477C90.1308 119.99 91.313 119.747 92.6227 119.747C93.9439 119.747 95.1319 119.99 96.1866 120.477C97.2529 120.952 98.1569 121.624 98.8987 122.493C99.652 123.351 100.226 124.365 100.62 125.536C101.014 126.695 101.211 127.952 101.211 129.308V129.708C101.211 131.064 101.014 132.322 100.62 133.481C100.226 134.64 99.652 135.654 98.8987 136.523C98.1569 137.381 97.2587 138.053 96.204 138.54C95.1609 139.015 93.9787 139.252 92.6575 139.252C91.3362 139.252 90.1482 139.015 89.0935 138.54C88.0388 138.053 87.1348 137.381 86.3815 136.523C85.6397 135.654 85.0718 134.64 84.6777 133.481C84.2837 132.322 84.0867 131.064 84.0867 129.708ZM87.3029 129.308V129.708C87.3029 130.647 87.413 131.534 87.6332 132.368C87.8534 133.191 88.1837 133.921 88.6241 134.559C89.0761 135.196 89.6383 135.7 90.3105 136.071C90.9827 136.43 91.765 136.61 92.6575 136.61C93.5383 136.61 94.309 136.43 94.9697 136.071C95.6419 135.7 96.1982 135.196 96.6386 134.559C97.079 133.921 97.4094 133.191 97.6296 132.368C97.8614 131.534 97.9773 130.647 97.9773 129.708V129.308C97.9773 128.381 97.8614 127.506 97.6296 126.683C97.4094 125.849 97.0732 125.113 96.6212 124.475C96.1808 123.826 95.6245 123.316 94.9523 122.945C94.2916 122.574 93.5151 122.389 92.6227 122.389C91.7418 122.389 90.9653 122.574 90.2931 122.945C89.6325 123.316 89.0761 123.826 88.6241 124.475C88.1837 125.113 87.8534 125.849 87.6332 126.683C87.413 127.506 87.3029 128.381 87.3029 129.308ZM108.543 133.811L117.218 120.094H120.452V138.905H117.218V125.188L108.543 138.905H105.344V120.094H108.543V133.811ZM115.462 113.279H118.07C118.07 114.183 117.862 114.989 117.444 115.696C117.027 116.391 116.43 116.936 115.654 117.33C114.877 117.724 113.956 117.921 112.889 117.921C111.278 117.921 110.004 117.492 109.065 116.635C108.138 115.765 107.674 114.647 107.674 113.279H110.282C110.282 113.963 110.479 114.566 110.873 115.087C111.267 115.609 111.939 115.87 112.889 115.87C113.817 115.87 114.477 115.609 114.871 115.087C115.265 114.566 115.462 113.963 115.462 113.279ZM142.922 130.63H136.751L136.716 128.057H141.758C142.754 128.057 143.583 127.958 144.244 127.761C144.916 127.564 145.42 127.268 145.756 126.874C146.092 126.48 146.26 125.994 146.26 125.414C146.26 124.962 146.162 124.568 145.965 124.232C145.779 123.884 145.495 123.6 145.113 123.38C144.73 123.148 144.255 122.98 143.687 122.876C143.131 122.76 142.476 122.702 141.723 122.702H137.603V138.905H134.386V120.094H141.723C142.917 120.094 143.989 120.199 144.939 120.407C145.901 120.616 146.718 120.934 147.39 121.363C148.074 121.781 148.596 122.314 148.955 122.963C149.314 123.612 149.494 124.377 149.494 125.258C149.494 125.825 149.378 126.364 149.146 126.874C148.914 127.384 148.572 127.836 148.12 128.23C147.668 128.624 147.112 128.949 146.452 129.204C145.791 129.447 145.032 129.604 144.174 129.673L142.922 130.63ZM142.922 138.905H135.586L137.185 136.297H142.922C143.815 136.297 144.557 136.187 145.148 135.967C145.739 135.735 146.179 135.41 146.469 134.993C146.77 134.564 146.921 134.054 146.921 133.463C146.921 132.872 146.77 132.368 146.469 131.951C146.179 131.522 145.739 131.197 145.148 130.977C144.557 130.745 143.815 130.63 142.922 130.63H138.037L138.072 128.057H144.174L145.339 129.03C146.37 129.111 147.245 129.366 147.964 129.795C148.683 130.224 149.227 130.769 149.598 131.429C149.969 132.078 150.155 132.785 150.155 133.55C150.155 134.431 149.986 135.208 149.65 135.88C149.326 136.552 148.851 137.114 148.225 137.566C147.599 138.007 146.84 138.343 145.947 138.574C145.055 138.795 144.047 138.905 142.922 138.905ZM161.816 136.61C162.581 136.61 163.288 136.454 163.937 136.141C164.586 135.828 165.119 135.399 165.536 134.854C165.953 134.298 166.191 133.666 166.249 132.959H169.309C169.251 134.072 168.874 135.109 168.179 136.071C167.495 137.021 166.597 137.792 165.484 138.383C164.371 138.963 163.149 139.252 161.816 139.252C160.402 139.252 159.167 139.003 158.113 138.505C157.07 138.007 156.2 137.323 155.505 136.454C154.821 135.584 154.305 134.588 153.958 133.463C153.622 132.327 153.453 131.128 153.453 129.865V129.134C153.453 127.871 153.622 126.677 153.958 125.553C154.305 124.417 154.821 123.415 155.505 122.546C156.2 121.676 157.07 120.992 158.113 120.494C159.167 119.996 160.402 119.747 161.816 119.747C163.288 119.747 164.574 120.048 165.675 120.651C166.776 121.242 167.64 122.053 168.266 123.084C168.903 124.104 169.251 125.263 169.309 126.561H166.249C166.191 125.785 165.971 125.084 165.588 124.458C165.217 123.832 164.707 123.334 164.058 122.963C163.421 122.58 162.673 122.389 161.816 122.389C160.831 122.389 160.002 122.586 159.33 122.98C158.669 123.363 158.142 123.884 157.748 124.545C157.365 125.194 157.087 125.918 156.913 126.718C156.751 127.506 156.67 128.312 156.67 129.134V129.865C156.67 130.687 156.751 131.499 156.913 132.298C157.075 133.098 157.348 133.823 157.73 134.472C158.124 135.121 158.652 135.642 159.312 136.036C159.984 136.419 160.819 136.61 161.816 136.61ZM180.553 139.252C179.243 139.252 178.055 139.032 176.989 138.592C175.934 138.14 175.024 137.508 174.259 136.697C173.506 135.886 172.926 134.924 172.521 133.811C172.115 132.698 171.912 131.481 171.912 130.16V129.43C171.912 127.9 172.138 126.538 172.59 125.344C173.042 124.139 173.656 123.119 174.433 122.285C175.21 121.45 176.09 120.819 177.076 120.39C178.061 119.961 179.081 119.747 180.135 119.747C181.48 119.747 182.639 119.978 183.612 120.442C184.597 120.906 185.403 121.555 186.029 122.389C186.655 123.212 187.118 124.185 187.42 125.31C187.721 126.422 187.872 127.639 187.872 128.961V130.404H173.825V127.778H184.655V127.535C184.609 126.701 184.435 125.889 184.134 125.101C183.844 124.313 183.38 123.664 182.743 123.154C182.106 122.644 181.236 122.389 180.135 122.389C179.405 122.389 178.733 122.546 178.119 122.858C177.504 123.16 176.977 123.612 176.537 124.214C176.096 124.817 175.754 125.553 175.511 126.422C175.267 127.292 175.146 128.294 175.146 129.43V130.16C175.146 131.053 175.267 131.893 175.511 132.681C175.766 133.457 176.131 134.141 176.606 134.732C177.093 135.323 177.678 135.787 178.362 136.123C179.057 136.459 179.846 136.627 180.726 136.627C181.862 136.627 182.824 136.396 183.612 135.932C184.4 135.468 185.09 134.848 185.681 134.072L187.628 135.619C187.223 136.233 186.707 136.819 186.081 137.375C185.455 137.931 184.684 138.383 183.769 138.731C182.865 139.079 181.793 139.252 180.553 139.252ZM204.018 120.094V122.754H194.926V120.094H204.018ZM206.852 120.094V138.905H203.636V120.094H206.852ZM194.143 120.094H197.377L196.89 129.169C196.809 130.572 196.676 131.812 196.49 132.89C196.317 133.956 196.073 134.871 195.76 135.636C195.459 136.401 195.076 137.027 194.613 137.514C194.161 137.989 193.616 138.343 192.979 138.574C192.341 138.795 191.605 138.905 190.771 138.905H189.762V136.071L190.458 136.019C190.956 135.984 191.379 135.868 191.727 135.671C192.086 135.474 192.388 135.184 192.631 134.802C192.874 134.408 193.071 133.904 193.222 133.289C193.384 132.675 193.506 131.945 193.587 131.099C193.68 130.253 193.749 129.268 193.796 128.143L194.143 120.094ZM219.66 139.252C218.351 139.252 217.163 139.032 216.096 138.592C215.042 138.14 214.132 137.508 213.367 136.697C212.614 135.886 212.034 134.924 211.629 133.811C211.223 132.698 211.02 131.481 211.02 130.16V129.43C211.02 127.9 211.246 126.538 211.698 125.344C212.15 124.139 212.764 123.119 213.541 122.285C214.317 121.45 215.198 120.819 216.183 120.39C217.169 119.961 218.188 119.747 219.243 119.747C220.588 119.747 221.747 119.978 222.72 120.442C223.705 120.906 224.511 121.555 225.137 122.389C225.763 123.212 226.226 124.185 226.527 125.31C226.829 126.422 226.98 127.639 226.98 128.961V130.404H212.932V127.778H223.763V127.535C223.717 126.701 223.543 125.889 223.242 125.101C222.952 124.313 222.488 123.664 221.851 123.154C221.213 122.644 220.344 122.389 219.243 122.389C218.513 122.389 217.841 122.546 217.227 122.858C216.612 123.16 216.085 123.612 215.644 124.214C215.204 124.817 214.862 125.553 214.619 126.422C214.375 127.292 214.254 128.294 214.254 129.43V130.16C214.254 131.053 214.375 131.893 214.619 132.681C214.874 133.457 215.239 134.141 215.714 134.732C216.201 135.323 216.786 135.787 217.47 136.123C218.165 136.459 218.953 136.627 219.834 136.627C220.97 136.627 221.932 136.396 222.72 135.932C223.508 135.468 224.198 134.848 224.789 134.072L226.736 135.619C226.33 136.233 225.815 136.819 225.189 137.375C224.563 137.931 223.792 138.383 222.877 138.731C221.973 139.079 220.901 139.252 219.66 139.252ZM243.317 128.248V130.856H233.373V128.248H243.317ZM234.051 120.094V138.905H230.835V120.094H234.051ZM245.925 120.094V138.905H242.691V120.094H245.925ZM263.688 128.248V130.856H253.744V128.248H263.688ZM254.422 120.094V138.905H251.206V120.094H254.422ZM266.296 120.094V138.905H263.062V120.094H266.296ZM276.584 136.958L281.817 120.094H285.259L277.714 141.808C277.54 142.272 277.308 142.77 277.018 143.303C276.74 143.848 276.381 144.364 275.941 144.85C275.5 145.337 274.967 145.731 274.341 146.033C273.727 146.346 272.991 146.502 272.133 146.502C271.878 146.502 271.554 146.467 271.16 146.398C270.766 146.328 270.487 146.27 270.325 146.224L270.308 143.616C270.401 143.628 270.545 143.639 270.742 143.651C270.951 143.674 271.096 143.686 271.177 143.686C271.907 143.686 272.527 143.587 273.037 143.39C273.547 143.205 273.976 142.886 274.324 142.434C274.683 141.994 274.99 141.385 275.245 140.609L276.584 136.958ZM272.742 120.094L277.627 134.698L278.461 138.088L276.149 139.27L269.23 120.094H272.742ZM298.693 128.074V130.699H288.697V128.074H298.693ZM291.496 120.094V138.905H288.28V120.094H291.496ZM295.946 129.708V129.308C295.946 127.952 296.144 126.695 296.538 125.536C296.932 124.365 297.5 123.351 298.241 122.493C298.995 121.624 299.893 120.952 300.936 120.477C301.991 119.99 303.173 119.747 304.483 119.747C305.815 119.747 307.009 119.99 308.064 120.477C309.119 120.952 310.017 121.624 310.758 122.493C311.512 123.351 312.086 124.365 312.48 125.536C312.874 126.695 313.071 127.952 313.071 129.308V129.708C313.071 131.064 312.874 132.322 312.48 133.481C312.086 134.64 311.518 135.654 310.776 136.523C310.034 137.381 309.136 138.053 308.081 138.54C307.027 139.015 305.839 139.252 304.517 139.252C303.196 139.252 302.008 139.015 300.953 138.54C299.899 138.053 298.995 137.381 298.241 136.523C297.5 135.654 296.932 134.64 296.538 133.481C296.144 132.322 295.946 131.064 295.946 129.708ZM299.18 129.308V129.708C299.18 130.647 299.29 131.534 299.51 132.368C299.731 133.191 300.061 133.921 300.501 134.559C300.953 135.196 301.51 135.7 302.17 136.071C302.843 136.43 303.625 136.61 304.517 136.61C305.41 136.61 306.186 136.43 306.847 136.071C307.519 135.7 308.075 135.196 308.516 134.559C308.956 133.921 309.287 133.191 309.507 132.368C309.739 131.534 309.854 130.647 309.854 129.708V129.308C309.854 128.381 309.739 127.506 309.507 126.683C309.287 125.849 308.95 125.113 308.498 124.475C308.058 123.826 307.502 123.316 306.829 122.945C306.157 122.574 305.375 122.389 304.483 122.389C303.602 122.389 302.831 122.574 302.17 122.945C301.51 123.316 300.953 123.826 300.501 124.475C300.061 125.113 299.731 125.849 299.51 126.683C299.29 127.506 299.18 128.381 299.18 129.308ZM8.21783 167.811L16.8929 154.094H20.1266V172.905H16.8929V159.188L8.21783 172.905H5.019V154.094H8.21783V167.811ZM37.8725 162.248V164.856H27.9282V162.248H37.8725ZM28.6063 154.094V172.905H25.39V154.094H28.6063ZM40.4802 154.094V172.905H37.2466V154.094H40.4802ZM53.1497 154.094V172.905H49.9161V154.094H53.1497ZM59.4605 154.094V156.702H43.727V154.094H59.4605ZM68.8616 173.252C67.5519 173.252 66.3639 173.032 65.2976 172.592C64.243 172.14 63.3331 171.508 62.5682 170.697C61.8149 169.886 61.2354 168.924 60.8297 167.811C60.4241 166.698 60.2212 165.481 60.2212 164.16V163.43C60.2212 161.9 60.4472 160.538 60.8992 159.344C61.3513 158.139 61.9655 157.119 62.7421 156.285C63.5186 155.45 64.3994 154.819 65.3846 154.39C66.3697 153.961 67.3896 153.747 68.4443 153.747C69.7888 153.747 70.9478 153.978 71.9213 154.442C72.9065 154.906 73.712 155.555 74.3378 156.389C74.9637 157.212 75.4273 158.185 75.7286 159.31C76.03 160.422 76.1807 161.639 76.1807 162.961V164.404H62.1336V161.778H72.9644V161.535C72.9181 160.701 72.7442 159.889 72.4429 159.101C72.1531 158.313 71.6895 157.664 71.0521 157.154C70.4146 156.644 69.5454 156.389 68.4443 156.389C67.7142 156.389 67.0419 156.546 66.4277 156.858C65.8134 157.16 65.2861 157.612 64.8456 158.214C64.4052 158.817 64.0633 159.553 63.8199 160.422C63.5765 161.292 63.4548 162.294 63.4548 163.43V164.16C63.4548 165.053 63.5765 165.893 63.8199 166.681C64.0749 167.457 64.44 168.141 64.9152 168.732C65.402 169.323 65.9873 169.787 66.6711 170.123C67.3665 170.459 68.1546 170.627 69.0354 170.627C70.1712 170.627 71.1332 170.396 71.9213 169.932C72.7095 169.468 73.3991 168.848 73.9901 168.072L75.9373 169.619C75.5316 170.233 75.0159 170.819 74.39 171.375C73.7641 171.931 72.9934 172.383 72.0778 172.731C71.1738 173.079 70.1017 173.252 68.8616 173.252ZM82.974 157.71V180.137H79.7404V154.094H82.6959L82.974 157.71ZM95.6477 163.343V163.708C95.6477 165.076 95.4854 166.345 95.1609 167.515C94.8364 168.674 94.3612 169.683 93.7353 170.54C93.1211 171.398 92.3619 172.065 91.4579 172.54C90.5539 173.015 89.5166 173.252 88.346 173.252C87.1522 173.252 86.0975 173.055 85.1819 172.661C84.2663 172.267 83.4898 171.694 82.8523 170.94C82.2149 170.187 81.7049 169.283 81.3224 168.228C80.9516 167.174 80.6966 165.986 80.5575 164.664V162.717C80.6966 161.326 80.9574 160.08 81.3398 158.979C81.7223 157.878 82.2265 156.94 82.8523 156.163C83.4898 155.375 84.2605 154.778 85.1645 154.372C86.0685 153.955 87.1116 153.747 88.2938 153.747C89.476 153.747 90.5249 153.978 91.4405 154.442C92.3561 154.894 93.1269 155.543 93.7527 156.389C94.3786 157.235 94.848 158.249 95.1609 159.431C95.4854 160.602 95.6477 161.906 95.6477 163.343ZM92.4141 163.708V163.343C92.4141 162.404 92.3156 161.523 92.1185 160.701C91.9215 159.866 91.6144 159.136 91.1971 158.51C90.7915 157.873 90.2699 157.374 89.6325 157.015C88.995 156.644 88.2359 156.459 87.355 156.459C86.5437 156.459 85.8367 156.598 85.2341 156.876C84.643 157.154 84.1388 157.531 83.7216 158.006C83.3043 158.469 82.9624 159.003 82.6959 159.605C82.4409 160.196 82.2496 160.811 82.1222 161.448V165.951C82.354 166.762 82.6785 167.527 83.0957 168.246C83.513 168.953 84.0693 169.526 84.7647 169.967C85.4601 170.396 86.3351 170.61 87.3898 170.61C88.2591 170.61 89.0066 170.43 89.6325 170.071C90.2699 169.7 90.7915 169.196 91.1971 168.559C91.6144 167.921 91.9215 167.191 92.1185 166.368C92.3156 165.534 92.4141 164.647 92.4141 163.708ZM107.378 173.252C106.069 173.252 104.881 173.032 103.814 172.592C102.76 172.14 101.85 171.508 101.085 170.697C100.332 169.886 99.7522 168.924 99.3465 167.811C98.9409 166.698 98.738 165.481 98.738 164.16V163.43C98.738 161.9 98.964 160.538 99.4161 159.344C99.8681 158.139 100.482 157.119 101.259 156.285C102.035 155.45 102.916 154.819 103.901 154.39C104.887 153.961 105.906 153.747 106.961 153.747C108.306 153.747 109.465 153.978 110.438 154.442C111.423 154.906 112.229 155.555 112.855 156.389C113.481 157.212 113.944 158.185 114.245 159.31C114.547 160.422 114.697 161.639 114.697 162.961V164.404H100.65V161.778H111.481V161.535C111.435 160.701 111.261 159.889 110.96 159.101C110.67 158.313 110.206 157.664 109.569 157.154C108.931 156.644 108.062 156.389 106.961 156.389C106.231 156.389 105.559 156.546 104.944 156.858C104.33 157.16 103.803 157.612 103.362 158.214C102.922 158.817 102.58 159.553 102.337 160.422C102.093 161.292 101.972 162.294 101.972 163.43V164.16C101.972 165.053 102.093 165.893 102.337 166.681C102.592 167.457 102.957 168.141 103.432 168.732C103.919 169.323 104.504 169.787 105.188 170.123C105.883 170.459 106.671 170.627 107.552 170.627C108.688 170.627 109.65 170.396 110.438 169.932C111.226 169.468 111.916 168.848 112.507 168.072L114.454 169.619C114.048 170.233 113.533 170.819 112.907 171.375C112.281 171.931 111.51 172.383 110.595 172.731C109.691 173.079 108.619 173.252 107.378 173.252ZM125.802 170.61C126.567 170.61 127.274 170.454 127.923 170.141C128.572 169.828 129.105 169.399 129.523 168.854C129.94 168.298 130.178 167.666 130.235 166.959H133.295C133.237 168.072 132.861 169.109 132.165 170.071C131.481 171.021 130.583 171.792 129.471 172.383C128.358 172.963 127.135 173.252 125.802 173.252C124.388 173.252 123.154 173.003 122.099 172.505C121.056 172.007 120.187 171.323 119.492 170.454C118.808 169.584 118.292 168.588 117.944 167.463C117.608 166.327 117.44 165.128 117.44 163.865V163.134C117.44 161.871 117.608 160.677 117.944 159.553C118.292 158.417 118.808 157.415 119.492 156.546C120.187 155.676 121.056 154.992 122.099 154.494C123.154 153.996 124.388 153.747 125.802 153.747C127.274 153.747 128.561 154.048 129.662 154.651C130.763 155.242 131.626 156.053 132.252 157.084C132.89 158.104 133.237 159.263 133.295 160.561H130.235C130.178 159.785 129.957 159.084 129.575 158.458C129.204 157.832 128.694 157.334 128.045 156.963C127.408 156.58 126.66 156.389 125.802 156.389C124.817 156.389 123.988 156.586 123.316 156.98C122.656 157.363 122.128 157.884 121.734 158.545C121.352 159.194 121.074 159.918 120.9 160.718C120.737 161.506 120.656 162.312 120.656 163.134V163.865C120.656 164.687 120.737 165.499 120.9 166.298C121.062 167.098 121.334 167.823 121.717 168.472C122.111 169.121 122.638 169.642 123.299 170.036C123.971 170.419 124.806 170.61 125.802 170.61ZM135.881 163.708V163.308C135.881 161.952 136.078 160.695 136.473 159.536C136.867 158.365 137.434 157.351 138.176 156.493C138.918 155.624 139.816 154.952 140.871 154.477C141.926 153.99 143.108 153.747 144.417 153.747C145.739 153.747 146.927 153.99 147.981 154.477C149.048 154.952 149.952 155.624 150.693 156.493C151.447 157.351 152.021 158.365 152.415 159.536C152.809 160.695 153.006 161.952 153.006 163.308V163.708C153.006 165.064 152.809 166.322 152.415 167.481C152.021 168.64 151.447 169.654 150.693 170.523C149.952 171.381 149.053 172.053 147.999 172.54C146.956 173.015 145.773 173.252 144.452 173.252C143.131 173.252 141.943 173.015 140.888 172.54C139.834 172.053 138.93 171.381 138.176 170.523C137.434 169.654 136.867 168.64 136.473 167.481C136.078 166.322 135.881 165.064 135.881 163.708ZM139.098 163.308V163.708C139.098 164.647 139.208 165.534 139.428 166.368C139.648 167.191 139.978 167.921 140.419 168.559C140.871 169.196 141.433 169.7 142.105 170.071C142.777 170.43 143.56 170.61 144.452 170.61C145.333 170.61 146.104 170.43 146.764 170.071C147.437 169.7 147.993 169.196 148.433 168.559C148.874 167.921 149.204 167.191 149.424 166.368C149.656 165.534 149.772 164.647 149.772 163.708V163.308C149.772 162.381 149.656 161.506 149.424 160.683C149.204 159.849 148.868 159.113 148.416 158.475C147.976 157.826 147.419 157.316 146.747 156.945C146.086 156.574 145.31 156.389 144.417 156.389C143.537 156.389 142.76 156.574 142.088 156.945C141.427 157.316 140.871 157.826 140.419 158.475C139.978 159.113 139.648 159.849 139.428 160.683C139.208 161.506 139.098 162.381 139.098 163.308ZM165.693 164.63H159.521L159.486 162.057H164.528C165.524 162.057 166.353 161.958 167.014 161.761C167.686 161.564 168.19 161.268 168.526 160.874C168.862 160.48 169.03 159.994 169.03 159.414C169.03 158.962 168.932 158.568 168.735 158.232C168.549 157.884 168.266 157.6 167.883 157.38C167.501 157.148 167.025 156.98 166.457 156.876C165.901 156.76 165.246 156.702 164.493 156.702H160.373V172.905H157.156V154.094H164.493C165.687 154.094 166.759 154.199 167.709 154.407C168.671 154.616 169.488 154.934 170.16 155.363C170.844 155.781 171.366 156.314 171.725 156.963C172.084 157.612 172.264 158.377 172.264 159.258C172.264 159.825 172.148 160.364 171.916 160.874C171.685 161.384 171.343 161.836 170.891 162.23C170.439 162.624 169.882 162.949 169.222 163.204C168.561 163.447 167.802 163.604 166.944 163.673L165.693 164.63ZM165.693 172.905H158.356L159.955 170.297H165.693C166.585 170.297 167.327 170.187 167.918 169.967C168.509 169.735 168.949 169.41 169.239 168.993C169.54 168.564 169.691 168.054 169.691 167.463C169.691 166.872 169.54 166.368 169.239 165.951C168.949 165.522 168.509 165.197 167.918 164.977C167.327 164.745 166.585 164.63 165.693 164.63H160.807L160.842 162.057H166.944L168.109 163.03C169.141 163.111 170.016 163.366 170.734 163.795C171.453 164.224 171.997 164.769 172.368 165.429C172.739 166.078 172.925 166.785 172.925 167.55C172.925 168.431 172.757 169.208 172.421 169.88C172.096 170.552 171.621 171.114 170.995 171.566C170.369 172.007 169.61 172.343 168.718 172.574C167.825 172.795 166.817 172.905 165.693 172.905Z" fill="white"/>
<path d="M3.41861 208.859H1.69452V208.164H3.41861C3.75249 208.164 4.02285 208.11 4.22968 208.004C4.43651 207.898 4.5872 207.75 4.68175 207.561C4.77926 207.372 4.82801 207.156 4.82801 206.914C4.82801 206.692 4.77926 206.484 4.68175 206.289C4.5872 206.094 4.43651 205.937 4.22968 205.819C4.02285 205.698 3.75249 205.637 3.41861 205.637H1.89397V211.39H1.03857V204.937H3.41861C3.90614 204.937 4.31832 205.021 4.65516 205.19C4.992 205.358 5.24758 205.591 5.42191 205.89C5.59624 206.185 5.68341 206.524 5.68341 206.905C5.68341 207.319 5.59624 207.672 5.42191 207.964C5.24758 208.257 4.992 208.48 4.65516 208.633C4.31832 208.784 3.90614 208.859 3.41861 208.859ZM8.5687 211.479C8.23481 211.479 7.93195 211.423 7.66012 211.31C7.39124 211.195 7.15929 211.034 6.96428 210.827C6.77222 210.62 6.62449 210.375 6.52107 210.092C6.41766 209.808 6.36595 209.498 6.36595 209.161V208.975C6.36595 208.585 6.42357 208.237 6.5388 207.933C6.65403 207.626 6.81064 207.366 7.0086 207.153C7.20657 206.94 7.43113 206.779 7.68228 206.67C7.93343 206.561 8.19345 206.506 8.46233 206.506C8.80508 206.506 9.10055 206.565 9.34875 206.683C9.5999 206.801 9.80525 206.967 9.96481 207.18C10.1244 207.389 10.2426 207.638 10.3194 207.924C10.3962 208.208 10.4346 208.518 10.4346 208.855V209.223H6.85348V208.554H9.61467V208.492C9.60285 208.279 9.55853 208.072 9.48171 207.871C9.40784 207.67 9.28965 207.505 9.12714 207.375C8.96463 207.245 8.74303 207.18 8.46233 207.18C8.27618 207.18 8.10481 207.22 7.94821 207.299C7.79161 207.376 7.65717 207.491 7.54489 207.645C7.43261 207.799 7.34544 207.986 7.28339 208.208C7.22134 208.429 7.19032 208.685 7.19032 208.975V209.161C7.19032 209.388 7.22134 209.603 7.28339 209.803C7.3484 210.001 7.44147 210.176 7.56261 210.326C7.68671 210.477 7.83593 210.595 8.01026 210.681C8.18754 210.767 8.38846 210.81 8.61302 210.81C8.90258 210.81 9.14783 210.75 9.34875 210.632C9.54967 210.514 9.72547 210.356 9.87617 210.158L10.3726 210.552C10.2691 210.709 10.1377 210.858 9.9781 211C9.81855 211.142 9.62206 211.257 9.38864 211.346C9.15817 211.434 8.88485 211.479 8.5687 211.479ZM12.2828 206.595V211.39H11.4629V206.595H12.2828ZM15.4296 206.595L13.1559 209.343H12.008L11.8839 208.625H12.8235L14.4324 206.595H15.4296ZM14.5476 211.39L12.7836 209.218L13.311 208.625L15.5891 211.39H14.5476ZM19.5071 206.595V207.273H17.1891V206.595H19.5071ZM20.2295 206.595V211.39H19.4096V206.595H20.2295ZM16.9897 206.595H17.814L17.6899 208.908C17.6693 209.266 17.6353 209.582 17.588 209.857C17.5437 210.128 17.4816 210.362 17.4019 210.557C17.325 210.752 17.2275 210.911 17.1093 211.036C16.9941 211.157 16.8552 211.247 16.6927 211.306C16.5302 211.362 16.3426 211.39 16.1298 211.39H15.8728V210.668L16.0501 210.654C16.1771 210.646 16.285 210.616 16.3736 210.566C16.4652 210.516 16.542 210.442 16.6041 210.344C16.6661 210.244 16.7164 210.115 16.7548 209.959C16.7961 209.802 16.8272 209.616 16.8478 209.4C16.8715 209.184 16.8892 208.933 16.901 208.647L16.9897 206.595ZM24.378 210.57V208.102C24.378 207.912 24.3396 207.748 24.2627 207.61C24.1889 207.468 24.0766 207.358 23.9259 207.282C23.7752 207.205 23.5891 207.166 23.3675 207.166C23.1606 207.166 22.9789 207.202 22.8223 207.273C22.6687 207.344 22.5475 207.437 22.4589 207.552C22.3732 207.667 22.3303 207.791 22.3303 207.924H21.5104C21.5104 207.753 21.5547 207.583 21.6434 207.415C21.732 207.246 21.8591 207.094 22.0245 206.958C22.1929 206.819 22.3939 206.71 22.6273 206.63C22.8637 206.547 23.1266 206.506 23.4162 206.506C23.7649 206.506 24.0722 206.565 24.3381 206.683C24.607 206.801 24.8167 206.98 24.9674 207.22C25.1211 207.456 25.1979 207.753 25.1979 208.11V210.344C25.1979 210.504 25.2112 210.674 25.2378 210.854C25.2673 211.034 25.3102 211.189 25.3663 211.319V211.39H24.5109C24.4696 211.296 24.4371 211.17 24.4134 211.013C24.3898 210.854 24.378 210.706 24.378 210.57ZM24.5198 208.483L24.5287 209.059H23.6999C23.4664 209.059 23.2581 209.078 23.0749 209.116C22.8917 209.152 22.7381 209.207 22.614 209.28C22.4899 209.354 22.3953 209.447 22.3303 209.56C22.2653 209.669 22.2328 209.798 22.2328 209.945C22.2328 210.096 22.2668 210.233 22.3348 210.357C22.4027 210.482 22.5047 210.581 22.6406 210.654C22.7795 210.725 22.9494 210.761 23.1503 210.761C23.4014 210.761 23.623 210.708 23.8151 210.601C24.0072 210.495 24.1593 210.365 24.2716 210.211C24.3868 210.058 24.4489 209.908 24.4577 209.764L24.8079 210.158C24.7872 210.282 24.7311 210.42 24.6395 210.57C24.5479 210.721 24.4252 210.866 24.2716 211.005C24.1209 211.14 23.9407 211.254 23.7309 211.346C23.5241 211.434 23.2906 211.479 23.0306 211.479C22.7056 211.479 22.4205 211.415 22.1752 211.288C21.9329 211.161 21.7438 210.991 21.6079 210.779C21.475 210.563 21.4085 210.322 21.4085 210.056C21.4085 209.799 21.4587 209.573 21.5592 209.378C21.6596 209.18 21.8044 209.016 21.9935 208.886C22.1826 208.753 22.4101 208.653 22.676 208.585C22.942 208.517 23.2389 208.483 23.5669 208.483H24.5198ZM29.2444 210.3L30.8754 206.595H31.6643L29.5281 211.39H28.9608L26.8333 206.595H27.6223L29.2444 210.3ZM27.3829 206.595V211.39H26.563V206.595H27.3829ZM31.0793 211.39V206.595H31.9037V211.39H31.0793ZM36.0521 210.57V208.102C36.0521 207.912 36.0137 207.748 35.9369 207.61C35.863 207.468 35.7507 207.358 35.6 207.282C35.4493 207.205 35.2632 207.166 35.0416 207.166C34.8348 207.166 34.653 207.202 34.4964 207.273C34.3428 207.344 34.2216 207.437 34.133 207.552C34.0473 207.667 34.0045 207.791 34.0045 207.924H33.1845C33.1845 207.753 33.2289 207.583 33.3175 207.415C33.4061 207.246 33.5332 207.094 33.6987 206.958C33.8671 206.819 34.068 206.71 34.3014 206.63C34.5378 206.547 34.8008 206.506 35.0903 206.506C35.439 206.506 35.7463 206.565 36.0122 206.683C36.2811 206.801 36.4909 206.98 36.6416 207.22C36.7952 207.456 36.872 207.753 36.872 208.11V210.344C36.872 210.504 36.8853 210.674 36.9119 210.854C36.9415 211.034 36.9843 211.189 37.0405 211.319V211.39H36.1851C36.1437 211.296 36.1112 211.17 36.0876 211.013C36.0639 210.854 36.0521 210.706 36.0521 210.57ZM36.1939 208.483L36.2028 209.059H35.374C35.1406 209.059 34.9323 209.078 34.7491 209.116C34.5659 209.152 34.4122 209.207 34.2881 209.28C34.164 209.354 34.0695 209.447 34.0045 209.56C33.9395 209.669 33.907 209.798 33.907 209.945C33.907 210.096 33.9409 210.233 34.0089 210.357C34.0769 210.482 34.1788 210.581 34.3147 210.654C34.4536 210.725 34.6235 210.761 34.8244 210.761C35.0756 210.761 35.2972 210.708 35.4892 210.601C35.6813 210.495 35.8335 210.365 35.9457 210.211C36.061 210.058 36.123 209.908 36.1319 209.764L36.482 210.158C36.4613 210.282 36.4052 210.42 36.3136 210.57C36.222 210.721 36.0994 210.866 35.9457 211.005C35.795 211.14 35.6148 211.254 35.405 211.346C35.1982 211.434 34.9648 211.479 34.7047 211.479C34.3797 211.479 34.0946 211.415 33.8494 211.288C33.6071 211.161 33.418 210.991 33.282 210.779C33.1491 210.563 33.0826 210.322 33.0826 210.056C33.0826 209.799 33.1328 209.573 33.2333 209.378C33.3338 209.18 33.4785 209.016 33.6676 208.886C33.8567 208.753 34.0843 208.653 34.3502 208.585C34.6161 208.517 34.9131 208.483 35.241 208.483H36.1939ZM38.1751 210.956C38.1751 210.817 38.2179 210.7 38.3036 210.606C38.3922 210.508 38.5193 210.459 38.6848 210.459C38.8502 210.459 38.9758 210.508 39.0615 210.606C39.1501 210.7 39.1945 210.817 39.1945 210.956C39.1945 211.092 39.1501 211.207 39.0615 211.301C38.9758 211.396 38.8502 211.443 38.6848 211.443C38.5193 211.443 38.3922 211.396 38.3036 211.301C38.2179 211.207 38.1751 211.092 38.1751 210.956ZM47.8991 207.96V208.367C47.8991 208.852 47.8385 209.286 47.7174 209.67C47.5962 210.055 47.4219 210.381 47.1944 210.65C46.9669 210.919 46.6936 211.124 46.3744 211.266C46.0583 211.408 45.7037 211.479 45.3107 211.479C44.9296 211.479 44.5794 211.408 44.2603 211.266C43.9442 211.124 43.6694 210.919 43.436 210.65C43.2055 210.381 43.0267 210.055 42.8997 209.67C42.7726 209.286 42.7091 208.852 42.7091 208.367V207.96C42.7091 207.475 42.7712 207.042 42.8952 206.661C43.0223 206.277 43.2011 205.95 43.4315 205.682C43.662 205.41 43.9353 205.203 44.2515 205.061C44.5706 204.919 44.9207 204.848 45.3019 204.848C45.6949 204.848 46.0494 204.919 46.3656 205.061C46.6847 205.203 46.958 205.41 47.1855 205.682C47.416 205.95 47.5918 206.277 47.7129 206.661C47.837 207.042 47.8991 207.475 47.8991 207.96ZM47.0526 208.367V207.951C47.0526 207.567 47.0127 207.227 46.9329 206.931C46.8561 206.636 46.7423 206.388 46.5916 206.187C46.4409 205.986 46.2563 205.834 46.0376 205.73C45.8219 205.627 45.5767 205.575 45.3019 205.575C45.0359 205.575 44.7951 205.627 44.5794 205.73C44.3667 205.834 44.1835 205.986 44.0299 206.187C43.8792 206.388 43.7625 206.636 43.6797 206.931C43.597 207.227 43.5556 207.567 43.5556 207.951V208.367C43.5556 208.755 43.597 209.097 43.6797 209.396C43.7625 209.691 43.8807 209.941 44.0343 210.145C44.1909 210.346 44.3756 210.498 44.5883 210.601C44.804 210.705 45.0448 210.756 45.3107 210.756C45.5885 210.756 45.8352 210.705 46.0509 210.601C46.2666 210.498 46.4483 210.346 46.596 210.145C46.7467 209.941 46.8605 209.691 46.9373 209.396C47.0141 209.097 47.0526 208.755 47.0526 208.367ZM54.1483 207.96V208.367C54.1483 208.852 54.0878 209.286 53.9666 209.67C53.8455 210.055 53.6711 210.381 53.4436 210.65C53.2161 210.919 52.9428 211.124 52.6237 211.266C52.3075 211.408 51.953 211.479 51.56 211.479C51.1788 211.479 50.8287 211.408 50.5096 211.266C50.1934 211.124 49.9186 210.919 49.6852 210.65C49.4547 210.381 49.276 210.055 49.1489 209.67C49.0219 209.286 48.9584 208.852 48.9584 208.367V207.96C48.9584 207.475 49.0204 207.042 49.1445 206.661C49.2716 206.277 49.4503 205.95 49.6808 205.682C49.9113 205.41 50.1846 205.203 50.5007 205.061C50.8198 204.919 51.17 204.848 51.5511 204.848C51.9441 204.848 52.2987 204.919 52.6148 205.061C52.9339 205.203 53.2073 205.41 53.4348 205.682C53.6652 205.95 53.841 206.277 53.9622 206.661C54.0863 207.042 54.1483 207.475 54.1483 207.96ZM53.3018 208.367V207.951C53.3018 207.567 53.2619 207.227 53.1821 206.931C53.1053 206.636 52.9916 206.388 52.8409 206.187C52.6902 205.986 52.5055 205.834 52.2869 205.73C52.0712 205.627 51.8259 205.575 51.5511 205.575C51.2852 205.575 51.0444 205.627 50.8287 205.73C50.616 205.834 50.4328 205.986 50.2791 206.187C50.1284 206.388 50.0117 206.636 49.929 206.931C49.8462 207.227 49.8049 207.567 49.8049 207.951V208.367C49.8049 208.755 49.8462 209.097 49.929 209.396C50.0117 209.691 50.1299 209.941 50.2835 210.145C50.4401 210.346 50.6248 210.498 50.8376 210.601C51.0533 210.705 51.2941 210.756 51.56 210.756C51.8377 210.756 52.0845 210.705 52.3002 210.601C52.5158 210.498 52.6976 210.346 52.8453 210.145C52.996 209.941 53.1097 209.691 53.1866 209.396C53.2634 209.097 53.3018 208.755 53.3018 208.367ZM60.3976 207.96V208.367C60.3976 208.852 60.337 209.286 60.2159 209.67C60.0947 210.055 59.9204 210.381 59.6929 210.65C59.4654 210.919 59.1921 211.124 58.8729 211.266C58.5568 211.408 58.2022 211.479 57.8092 211.479C57.4281 211.479 57.0779 211.408 56.7588 211.266C56.4427 211.124 56.1679 210.919 55.9345 210.65C55.704 210.381 55.5252 210.055 55.3982 209.67C55.2711 209.286 55.2076 208.852 55.2076 208.367V207.96C55.2076 207.475 55.2697 207.042 55.3938 206.661C55.5208 206.277 55.6996 205.95 55.93 205.682C56.1605 205.41 56.4338 205.203 56.75 205.061C57.0691 204.919 57.4192 204.848 57.8004 204.848C58.1934 204.848 58.5479 204.919 58.8641 205.061C59.1832 205.203 59.4565 205.41 59.684 205.682C59.9145 205.95 60.0903 206.277 60.2114 206.661C60.3355 207.042 60.3976 207.475 60.3976 207.96ZM59.5511 208.367V207.951C59.5511 207.567 59.5112 207.227 59.4314 206.931C59.3546 206.636 59.2408 206.388 59.0901 206.187C58.9394 205.986 58.7548 205.834 58.5361 205.73C58.3204 205.627 58.0752 205.575 57.8004 205.575C57.5345 205.575 57.2936 205.627 57.0779 205.73C56.8652 205.834 56.682 205.986 56.5284 206.187C56.3777 206.388 56.261 206.636 56.1782 206.931C56.0955 207.227 56.0541 207.567 56.0541 207.951V208.367C56.0541 208.755 56.0955 209.097 56.1782 209.396C56.261 209.691 56.3792 209.941 56.5328 210.145C56.6894 210.346 56.8741 210.498 57.0868 210.601C57.3025 210.705 57.5433 210.756 57.8092 210.756C58.087 210.756 58.3337 210.705 58.5494 210.601C58.7651 210.498 58.9468 210.346 59.0945 210.145C59.2452 209.941 59.359 209.691 59.4358 209.396C59.5126 209.097 59.5511 208.755 59.5511 208.367ZM65.5654 207.197L64.4086 208.979L63.6286 208.975V208.917L64.936 207.197H65.5654ZM64.4086 208.939L65.5654 210.725H64.936L63.6286 209.001V208.944L64.4086 208.939ZM67.0324 207.197L65.8756 208.979L65.0956 208.975V208.917L66.4031 207.197H67.0324ZM65.8756 208.939L67.0324 210.725H66.4031L65.0956 209.001V208.944L65.8756 208.939ZM73.2684 210.694V211.39H68.3842V210.694H73.2684ZM68.5216 210.694V212.977H67.6751L67.6706 210.694H68.5216ZM74.013 210.694L74.0041 212.972H73.1576V210.694H74.013ZM72.4307 204.937V205.637H69.603V204.937H72.4307ZM73.1664 204.937V211.39H72.3155V204.937H73.1664ZM69.3105 204.937H70.1659L70.033 207.534C70.0152 207.924 69.9783 208.285 69.9221 208.616C69.866 208.944 69.7966 209.244 69.7138 209.515C69.6311 209.787 69.5366 210.031 69.4302 210.247C69.3238 210.459 69.2101 210.644 69.0889 210.801C68.9678 210.954 68.8407 211.081 68.7078 211.182C68.5777 211.279 68.4463 211.349 68.3133 211.39H67.9233V210.694H68.1981C68.2749 210.612 68.3621 210.492 68.4596 210.335C68.56 210.179 68.659 209.976 68.7565 209.728C68.857 209.477 68.9441 209.171 69.018 208.811C69.0948 208.45 69.1465 208.025 69.1731 207.534L69.3105 204.937ZM76.6855 209.099H75.8035V208.593H76.619C76.8465 208.593 77.0268 208.565 77.1598 208.509C77.2927 208.45 77.3873 208.369 77.4434 208.266C77.4995 208.162 77.5276 208.041 77.5276 207.902C77.5276 207.778 77.4951 207.661 77.4301 207.552C77.3681 207.44 77.2676 207.35 77.1287 207.282C76.9899 207.211 76.8037 207.175 76.5703 207.175C76.3812 207.175 76.2098 207.209 76.0562 207.277C75.9025 207.342 75.7799 207.432 75.6883 207.548C75.5997 207.66 75.5553 207.787 75.5553 207.929H74.7354C74.7354 207.636 74.8181 207.385 74.9836 207.175C75.152 206.962 75.3751 206.798 75.6528 206.683C75.9335 206.568 76.2394 206.51 76.5703 206.51C76.848 206.51 77.0962 206.541 77.3149 206.603C77.5365 206.663 77.7241 206.751 77.8778 206.869C78.0314 206.985 78.1481 207.129 78.2279 207.304C78.3106 207.475 78.352 207.675 78.352 207.902C78.352 208.065 78.3136 208.218 78.2367 208.363C78.1599 208.508 78.0491 208.636 77.9043 208.749C77.7596 208.858 77.5838 208.944 77.3769 209.006C77.173 209.068 76.9426 209.099 76.6855 209.099ZM75.8035 208.788H76.6855C76.9721 208.788 77.2248 208.817 77.4434 208.873C77.6621 208.926 77.8452 209.006 77.993 209.112C78.1407 209.218 78.2515 209.35 78.3254 209.506C78.4022 209.66 78.4406 209.837 78.4406 210.038C78.4406 210.263 78.3948 210.465 78.3032 210.646C78.2146 210.823 78.0875 210.974 77.9221 211.098C77.7566 211.222 77.5586 211.316 77.3282 211.381C77.1007 211.446 76.848 211.479 76.5703 211.479C76.26 211.479 75.9587 211.426 75.6661 211.319C75.3736 211.213 75.1328 211.049 74.9437 210.827C74.7546 210.603 74.6601 210.318 74.6601 209.972H75.48C75.48 210.117 75.5258 210.254 75.6174 210.384C75.709 210.514 75.836 210.619 75.9985 210.699C76.164 210.779 76.3546 210.818 76.5703 210.818C76.8008 210.818 76.9928 210.783 77.1465 210.712C77.3001 210.641 77.4153 210.547 77.4922 210.428C77.5719 210.31 77.6118 210.182 77.6118 210.043C77.6118 209.863 77.5764 209.718 77.5055 209.608C77.4345 209.499 77.3252 209.419 77.1775 209.369C77.0327 209.316 76.8465 209.289 76.619 209.289H75.8035V208.788ZM81.4943 211.479C81.1605 211.479 80.8576 211.423 80.5858 211.31C80.3169 211.195 80.0849 211.034 79.8899 210.827C79.6979 210.62 79.5501 210.375 79.4467 210.092C79.3433 209.808 79.2916 209.498 79.2916 209.161V208.975C79.2916 208.585 79.3492 208.237 79.4644 207.933C79.5797 207.626 79.7363 207.366 79.9342 207.153C80.1322 206.94 80.3568 206.779 80.6079 206.67C80.8591 206.561 81.1191 206.506 81.388 206.506C81.7307 206.506 82.0262 206.565 82.2744 206.683C82.5255 206.801 82.7309 206.967 82.8904 207.18C83.05 207.389 83.1682 207.638 83.245 207.924C83.3218 208.208 83.3602 208.518 83.3602 208.855V209.223H79.7791V208.554H82.5403V208.492C82.5285 208.279 82.4842 208.072 82.4073 207.871C82.3335 207.67 82.2153 207.505 82.0528 207.375C81.8903 207.245 81.6687 207.18 81.388 207.18C81.2018 207.18 81.0304 207.22 80.8738 207.299C80.7172 207.376 80.5828 207.491 80.4705 207.645C80.3582 207.799 80.2711 207.986 80.209 208.208C80.147 208.429 80.116 208.685 80.116 208.975V209.161C80.116 209.388 80.147 209.603 80.209 209.803C80.274 210.001 80.3671 210.176 80.4883 210.326C80.6124 210.477 80.7616 210.595 80.9359 210.681C81.1132 210.767 81.3141 210.81 81.5387 210.81C81.8282 210.81 82.0735 210.75 82.2744 210.632C82.4753 210.514 82.6511 210.356 82.8018 210.158L83.2982 210.552C83.1948 210.709 83.0633 210.858 82.9037 211C82.7442 211.142 82.5477 211.257 82.3143 211.346C82.0838 211.434 81.8105 211.479 81.4943 211.479ZM87.5707 208.673V209.338H85.0356V208.673H87.5707ZM85.2084 206.595V211.39H84.3885V206.595H85.2084ZM88.2356 206.595V211.39H87.4112V206.595H88.2356ZM89.5696 210.956C89.5696 210.817 89.6125 210.7 89.6981 210.606C89.7868 210.508 89.9138 210.459 90.0793 210.459C90.2448 210.459 90.3703 210.508 90.456 210.606C90.5447 210.7 90.589 210.817 90.589 210.956C90.589 211.092 90.5447 211.207 90.456 211.301C90.3703 211.396 90.2448 211.443 90.0793 211.443C89.9138 211.443 89.7868 211.396 89.6981 211.301C89.6125 211.207 89.5696 211.092 89.5696 210.956ZM97.0022 204.937V211.39H96.1513V205.637H92.969V211.39H92.1136V204.937H97.0022ZM101.634 206.595V207.273H99.3158V206.595H101.634ZM102.356 206.595V211.39H101.536V206.595H102.356ZM99.1163 206.595H99.9407L99.8166 208.908C99.7959 209.266 99.7619 209.582 99.7147 209.857C99.6703 210.128 99.6083 210.362 99.5285 210.557C99.4517 210.752 99.3542 210.911 99.236 211.036C99.1208 211.157 98.9819 211.247 98.8194 211.306C98.6569 211.362 98.4692 211.39 98.2565 211.39H97.9994V210.668L98.1767 210.654C98.3038 210.646 98.4116 210.616 98.5003 210.566C98.5919 210.516 98.6687 210.442 98.7307 210.344C98.7928 210.244 98.843 210.115 98.8814 209.959C98.9228 209.802 98.9538 209.616 98.9745 209.4C98.9981 209.184 99.0159 208.933 99.0277 208.647L99.1163 206.595ZM106.505 210.57V208.102C106.505 207.912 106.466 207.748 106.389 207.61C106.316 207.468 106.203 207.358 106.053 207.282C105.902 207.205 105.716 207.166 105.494 207.166C105.287 207.166 105.106 207.202 104.949 207.273C104.795 207.344 104.674 207.437 104.586 207.552C104.5 207.667 104.457 207.791 104.457 207.924H103.637C103.637 207.753 103.681 207.583 103.77 207.415C103.859 207.246 103.986 207.094 104.151 206.958C104.32 206.819 104.521 206.71 104.754 206.63C104.99 206.547 105.253 206.506 105.543 206.506C105.892 206.506 106.199 206.565 106.465 206.683C106.734 206.801 106.943 206.98 107.094 207.22C107.248 207.456 107.325 207.753 107.325 208.11V210.344C107.325 210.504 107.338 210.674 107.364 210.854C107.394 211.034 107.437 211.189 107.493 211.319V211.39H106.638C106.596 211.296 106.564 211.17 106.54 211.013C106.516 210.854 106.505 210.706 106.505 210.57ZM106.646 208.483L106.655 209.059H105.827C105.593 209.059 105.385 209.078 105.202 209.116C105.018 209.152 104.865 209.207 104.741 209.28C104.617 209.354 104.522 209.447 104.457 209.56C104.392 209.669 104.359 209.798 104.359 209.945C104.359 210.096 104.393 210.233 104.461 210.357C104.529 210.482 104.631 210.581 104.767 210.654C104.906 210.725 105.076 210.761 105.277 210.761C105.528 210.761 105.75 210.708 105.942 210.601C106.134 210.495 106.286 210.365 106.398 210.211C106.513 210.058 106.576 209.908 106.584 209.764L106.935 210.158C106.914 210.282 106.858 210.42 106.766 210.57C106.675 210.721 106.552 210.866 106.398 211.005C106.248 211.14 106.067 211.254 105.858 211.346C105.651 211.434 105.417 211.479 105.157 211.479C104.832 211.479 104.547 211.415 104.302 211.288C104.06 211.161 103.87 210.991 103.735 210.779C103.602 210.563 103.535 210.322 103.535 210.056C103.535 209.799 103.585 209.573 103.686 209.378C103.786 209.18 103.931 209.016 104.12 208.886C104.309 208.753 104.537 208.653 104.803 208.585C105.069 208.517 105.366 208.483 105.694 208.483H106.646ZM110.498 206.595V211.39H109.674V206.595H110.498ZM112.107 206.595V207.259H108.096V206.595H112.107ZM118.072 209.077V209.17C118.072 209.506 118.035 209.817 117.962 210.1C117.888 210.381 117.777 210.625 117.629 210.832C117.484 211.039 117.304 211.2 117.088 211.315C116.873 211.427 116.623 211.483 116.339 211.483C116.106 211.483 115.901 211.452 115.723 211.39C115.546 211.325 115.395 211.232 115.271 211.111C115.15 210.99 115.053 210.845 114.979 210.677C114.908 210.505 114.859 210.313 114.833 210.1V207.973C114.859 207.745 114.908 207.542 114.979 207.361C115.053 207.181 115.15 207.027 115.271 206.9C115.395 206.773 115.545 206.676 115.719 206.608C115.893 206.54 116.097 206.506 116.331 206.506C116.561 206.506 116.768 206.547 116.951 206.63C117.137 206.71 117.3 206.825 117.439 206.976C117.58 207.126 117.697 207.308 117.789 207.521C117.883 207.731 117.954 207.967 118.001 208.23C118.049 208.493 118.072 208.775 118.072 209.077ZM117.252 209.17V209.077C117.252 208.87 117.238 208.673 117.208 208.487C117.182 208.298 117.139 208.125 117.08 207.969C117.023 207.809 116.95 207.67 116.858 207.552C116.766 207.434 116.656 207.342 116.526 207.277C116.399 207.212 116.252 207.18 116.087 207.18C115.91 207.18 115.762 207.202 115.644 207.246C115.528 207.29 115.438 207.35 115.373 207.423C115.308 207.494 115.261 207.57 115.231 207.649V210.428C115.267 210.493 115.319 210.555 115.387 210.615C115.455 210.671 115.546 210.718 115.661 210.756C115.777 210.792 115.921 210.81 116.096 210.81C116.303 210.81 116.478 210.768 116.623 210.685C116.771 210.6 116.891 210.482 116.982 210.331C117.077 210.18 117.145 210.006 117.186 209.808C117.23 209.61 117.252 209.397 117.252 209.17ZM112.377 209.17V209.077C112.377 208.775 112.401 208.493 112.448 208.23C112.495 207.967 112.566 207.731 112.661 207.521C112.755 207.308 112.872 207.126 113.011 206.976C113.153 206.825 113.315 206.71 113.498 206.63C113.685 206.547 113.893 206.506 114.123 206.506C114.351 206.506 114.549 206.54 114.717 206.608C114.889 206.676 115.033 206.773 115.152 206.9C115.27 207.027 115.364 207.181 115.435 207.361C115.506 207.542 115.556 207.745 115.586 207.973V210.016C115.559 210.241 115.511 210.443 115.44 210.623C115.369 210.804 115.274 210.959 115.156 211.089C115.038 211.216 114.892 211.313 114.717 211.381C114.546 211.449 114.345 211.483 114.115 211.483C113.831 211.483 113.581 211.427 113.366 211.315C113.15 211.2 112.968 211.039 112.82 210.832C112.676 210.625 112.565 210.381 112.488 210.1C112.414 209.817 112.377 209.506 112.377 209.17ZM113.202 209.077V209.17C113.202 209.397 113.221 209.61 113.259 209.808C113.301 210.006 113.364 210.18 113.45 210.331C113.538 210.482 113.654 210.6 113.795 210.685C113.937 210.768 114.112 210.81 114.318 210.81C114.496 210.81 114.642 210.787 114.757 210.743C114.872 210.699 114.964 210.641 115.032 210.57C115.1 210.499 115.152 210.425 115.187 210.349V207.649C115.158 207.57 115.109 207.494 115.041 207.423C114.976 207.35 114.886 207.29 114.77 207.246C114.655 207.202 114.508 207.18 114.327 207.18C114.12 207.18 113.945 207.23 113.8 207.33C113.655 207.431 113.538 207.568 113.45 207.743C113.364 207.917 113.301 208.119 113.259 208.35C113.221 208.577 113.202 208.82 113.202 209.077ZM114.779 213.234V204.582H115.604V213.234H114.779ZM118.928 209.046V208.944C118.928 208.598 118.978 208.277 119.078 207.982C119.179 207.683 119.324 207.425 119.513 207.206C119.702 206.985 119.931 206.813 120.2 206.692C120.469 206.568 120.77 206.506 121.104 206.506C121.441 206.506 121.744 206.568 122.013 206.692C122.284 206.813 122.515 206.985 122.704 207.206C122.896 207.425 123.042 207.683 123.143 207.982C123.243 208.277 123.293 208.598 123.293 208.944V209.046C123.293 209.391 123.243 209.712 123.143 210.007C123.042 210.303 122.896 210.561 122.704 210.783C122.515 211.002 122.286 211.173 122.017 211.297C121.751 211.418 121.45 211.479 121.113 211.479C120.776 211.479 120.473 211.418 120.204 211.297C119.935 211.173 119.705 211.002 119.513 210.783C119.324 210.561 119.179 210.303 119.078 210.007C118.978 209.712 118.928 209.391 118.928 209.046ZM119.748 208.944V209.046C119.748 209.285 119.776 209.511 119.832 209.724C119.888 209.933 119.972 210.12 120.085 210.282C120.2 210.445 120.343 210.573 120.514 210.668C120.686 210.759 120.885 210.805 121.113 210.805C121.337 210.805 121.534 210.759 121.702 210.668C121.874 210.573 122.015 210.445 122.128 210.282C122.24 210.12 122.324 209.933 122.38 209.724C122.439 209.511 122.469 209.285 122.469 209.046V208.944C122.469 208.707 122.439 208.484 122.38 208.274C122.324 208.062 122.239 207.874 122.123 207.711C122.011 207.546 121.869 207.416 121.698 207.321C121.529 207.227 121.331 207.18 121.104 207.18C120.879 207.18 120.681 207.227 120.51 207.321C120.342 207.416 120.2 207.546 120.085 207.711C119.972 207.874 119.888 208.062 119.832 208.274C119.776 208.484 119.748 208.707 119.748 208.944ZM125.142 207.516V213.234H124.317V206.595H125.071L125.142 207.516ZM128.373 208.952V209.046C128.373 209.394 128.331 209.718 128.248 210.016C128.166 210.312 128.045 210.569 127.885 210.787C127.728 211.006 127.535 211.176 127.304 211.297C127.074 211.418 126.81 211.479 126.511 211.479C126.207 211.479 125.938 211.429 125.704 211.328C125.471 211.228 125.273 211.081 125.111 210.889C124.948 210.697 124.818 210.467 124.721 210.198C124.626 209.929 124.561 209.626 124.526 209.289V208.793C124.561 208.438 124.627 208.121 124.725 207.84C124.822 207.559 124.951 207.32 125.111 207.122C125.273 206.921 125.47 206.769 125.7 206.666C125.93 206.559 126.196 206.506 126.498 206.506C126.799 206.506 127.067 206.565 127.3 206.683C127.533 206.798 127.73 206.964 127.889 207.18C128.049 207.395 128.169 207.654 128.248 207.955C128.331 208.254 128.373 208.586 128.373 208.952ZM127.548 209.046V208.952C127.548 208.713 127.523 208.489 127.473 208.279C127.423 208.066 127.344 207.88 127.238 207.72C127.135 207.558 127.002 207.431 126.839 207.339C126.677 207.245 126.483 207.197 126.258 207.197C126.052 207.197 125.871 207.233 125.718 207.304C125.567 207.375 125.439 207.471 125.332 207.592C125.226 207.71 125.139 207.846 125.071 208C125.006 208.15 124.957 208.307 124.924 208.469V209.617C124.984 209.824 125.066 210.019 125.173 210.202C125.279 210.383 125.421 210.529 125.598 210.641C125.775 210.75 125.998 210.805 126.267 210.805C126.489 210.805 126.68 210.759 126.839 210.668C127.002 210.573 127.135 210.445 127.238 210.282C127.344 210.12 127.423 209.933 127.473 209.724C127.523 209.511 127.548 209.285 127.548 209.046ZM132.175 210.3L133.806 206.595H134.595L132.459 211.39H131.892L129.764 206.595H130.553L132.175 210.3ZM130.314 206.595V211.39H129.494V206.595H130.314ZM134.01 211.39V206.595H134.835V211.39H134.01ZM138.983 210.57V208.102C138.983 207.912 138.945 207.748 138.868 207.61C138.794 207.468 138.682 207.358 138.531 207.282C138.38 207.205 138.194 207.166 137.972 207.166C137.766 207.166 137.584 207.202 137.427 207.273C137.274 207.344 137.153 207.437 137.064 207.552C136.978 207.667 136.935 207.791 136.935 207.924H136.115C136.115 207.753 136.16 207.583 136.248 207.415C136.337 207.246 136.464 207.094 136.63 206.958C136.798 206.819 136.999 206.71 137.232 206.63C137.469 206.547 137.732 206.506 138.021 206.506C138.37 206.506 138.677 206.565 138.943 206.683C139.212 206.801 139.422 206.98 139.572 207.22C139.726 207.456 139.803 207.753 139.803 208.11V210.344C139.803 210.504 139.816 210.674 139.843 210.854C139.872 211.034 139.915 211.189 139.971 211.319V211.39H139.116C139.075 211.296 139.042 211.17 139.018 211.013C138.995 210.854 138.983 210.706 138.983 210.57ZM139.125 208.483L139.134 209.059H138.305C138.071 209.059 137.863 209.078 137.68 209.116C137.497 209.152 137.343 209.207 137.219 209.28C137.095 209.354 137 209.447 136.935 209.56C136.87 209.669 136.838 209.798 136.838 209.945C136.838 210.096 136.872 210.233 136.94 210.357C137.008 210.482 137.11 210.581 137.246 210.654C137.385 210.725 137.554 210.761 137.755 210.761C138.006 210.761 138.228 210.708 138.42 210.601C138.612 210.495 138.764 210.365 138.877 210.211C138.992 210.058 139.054 209.908 139.063 209.764L139.413 210.158C139.392 210.282 139.336 210.42 139.245 210.57C139.153 210.721 139.03 210.866 138.877 211.005C138.726 211.14 138.546 211.254 138.336 211.346C138.129 211.434 137.896 211.479 137.636 211.479C137.311 211.479 137.026 211.415 136.78 211.288C136.538 211.161 136.349 210.991 136.213 210.779C136.08 210.563 136.014 210.322 136.014 210.056C136.014 209.799 136.064 209.573 136.164 209.378C136.265 209.18 136.409 209.016 136.599 208.886C136.788 208.753 137.015 208.653 137.281 208.585C137.547 208.517 137.844 208.483 138.172 208.483H139.125ZM140.924 210.712L142.081 208.93L142.861 208.935V208.992L141.554 210.712H140.924ZM140.924 207.184H141.554L142.861 208.908V208.966L142.081 208.97L140.924 207.184ZM142.471 210.712L143.628 208.93L144.408 208.935V208.992L143.1 210.712H142.471ZM142.471 207.184H143.1L144.408 208.908V208.966L143.628 208.97L142.471 207.184ZM145.361 210.956C145.361 210.817 145.404 210.7 145.489 210.606C145.578 210.508 145.705 210.459 145.87 210.459C146.036 210.459 146.162 210.508 146.247 210.606C146.336 210.7 146.38 210.817 146.38 210.956C146.38 211.092 146.336 211.207 146.247 211.301C146.162 211.396 146.036 211.443 145.87 211.443C145.705 211.443 145.578 211.396 145.489 211.301C145.404 211.207 145.361 211.092 145.361 210.956ZM155.045 204.937V211.39H154.194V205.637H151.012V211.39H150.156V204.937H155.045ZM156.255 209.046V208.944C156.255 208.598 156.305 208.277 156.406 207.982C156.506 207.683 156.651 207.425 156.84 207.206C157.029 206.985 157.258 206.813 157.527 206.692C157.796 206.568 158.097 206.506 158.431 206.506C158.768 206.506 159.071 206.568 159.34 206.692C159.611 206.813 159.842 206.985 160.031 207.206C160.223 207.425 160.369 207.683 160.47 207.982C160.57 208.277 160.62 208.598 160.62 208.944V209.046C160.62 209.391 160.57 209.712 160.47 210.007C160.369 210.303 160.223 210.561 160.031 210.783C159.842 211.002 159.613 211.173 159.344 211.297C159.078 211.418 158.777 211.479 158.44 211.479C158.103 211.479 157.8 211.418 157.531 211.297C157.262 211.173 157.032 211.002 156.84 210.783C156.651 210.561 156.506 210.303 156.406 210.007C156.305 209.712 156.255 209.391 156.255 209.046ZM157.075 208.944V209.046C157.075 209.285 157.103 209.511 157.159 209.724C157.215 209.933 157.299 210.12 157.412 210.282C157.527 210.445 157.67 210.573 157.842 210.668C158.013 210.759 158.212 210.805 158.44 210.805C158.664 210.805 158.861 210.759 159.029 210.668C159.201 210.573 159.343 210.445 159.455 210.282C159.567 210.12 159.651 209.933 159.707 209.724C159.767 209.511 159.796 209.285 159.796 209.046V208.944C159.796 208.707 159.767 208.484 159.707 208.274C159.651 208.062 159.566 207.874 159.45 207.711C159.338 207.546 159.196 207.416 159.025 207.321C158.856 207.227 158.659 207.18 158.431 207.18C158.206 207.18 158.008 207.227 157.837 207.321C157.669 207.416 157.527 207.546 157.412 207.711C157.299 207.874 157.215 208.062 157.159 208.274C157.103 208.484 157.075 208.707 157.075 208.944ZM162.194 206.595H163.014L162.943 208.39C162.925 208.845 162.873 209.238 162.788 209.569C162.702 209.899 162.593 210.182 162.46 210.415C162.327 210.646 162.178 210.839 162.012 210.996C161.85 211.152 161.681 211.284 161.507 211.39H161.099L161.121 210.721L161.29 210.716C161.387 210.601 161.482 210.483 161.573 210.362C161.665 210.238 161.749 210.092 161.826 209.923C161.903 209.752 161.966 209.543 162.017 209.298C162.07 209.05 162.104 208.747 162.119 208.39L162.194 206.595ZM162.398 206.595H165.283V211.39H164.463V207.352H162.398V206.595ZM160.913 210.716H165.899V212.804H165.079V211.39H161.733V212.804H160.909L160.913 210.716ZM167.628 207.516V213.234H166.803V206.595H167.557L167.628 207.516ZM170.859 208.952V209.046C170.859 209.394 170.817 209.718 170.735 210.016C170.652 210.312 170.531 210.569 170.371 210.787C170.214 211.006 170.021 211.176 169.79 211.297C169.56 211.418 169.296 211.479 168.997 211.479C168.693 211.479 168.424 211.429 168.19 211.328C167.957 211.228 167.759 211.081 167.597 210.889C167.434 210.697 167.304 210.467 167.207 210.198C167.112 209.929 167.047 209.626 167.012 209.289V208.793C167.047 208.438 167.113 208.121 167.211 207.84C167.309 207.559 167.437 207.32 167.597 207.122C167.759 206.921 167.956 206.769 168.186 206.666C168.417 206.559 168.682 206.506 168.984 206.506C169.285 206.506 169.553 206.565 169.786 206.683C170.019 206.798 170.216 206.964 170.376 207.18C170.535 207.395 170.655 207.654 170.735 207.955C170.817 208.254 170.859 208.586 170.859 208.952ZM170.034 209.046V208.952C170.034 208.713 170.009 208.489 169.959 208.279C169.909 208.066 169.83 207.88 169.724 207.72C169.621 207.558 169.488 207.431 169.325 207.339C169.163 207.245 168.969 207.197 168.745 207.197C168.538 207.197 168.357 207.233 168.204 207.304C168.053 207.375 167.925 207.471 167.818 207.592C167.712 207.71 167.625 207.846 167.557 208C167.492 208.15 167.443 208.307 167.41 208.469V209.617C167.47 209.824 167.552 210.019 167.659 210.202C167.765 210.383 167.907 210.529 168.084 210.641C168.261 210.75 168.484 210.805 168.753 210.805C168.975 210.805 169.166 210.759 169.325 210.668C169.488 210.573 169.621 210.445 169.724 210.282C169.83 210.12 169.909 209.933 169.959 209.724C170.009 209.511 170.034 209.285 170.034 209.046ZM171.687 209.046V208.944C171.687 208.598 171.738 208.277 171.838 207.982C171.939 207.683 172.083 207.425 172.272 207.206C172.462 206.985 172.691 206.813 172.959 206.692C173.228 206.568 173.53 206.506 173.864 206.506C174.2 206.506 174.503 206.568 174.772 206.692C175.044 206.813 175.274 206.985 175.464 207.206C175.656 207.425 175.802 207.683 175.902 207.982C176.003 208.277 176.053 208.598 176.053 208.944V209.046C176.053 209.391 176.003 209.712 175.902 210.007C175.802 210.303 175.656 210.561 175.464 210.783C175.274 211.002 175.045 211.173 174.777 211.297C174.511 211.418 174.209 211.479 173.872 211.479C173.536 211.479 173.233 211.418 172.964 211.297C172.695 211.173 172.465 211.002 172.272 210.783C172.083 210.561 171.939 210.303 171.838 210.007C171.738 209.712 171.687 209.391 171.687 209.046ZM172.507 208.944V209.046C172.507 209.285 172.535 209.511 172.592 209.724C172.648 209.933 172.732 210.12 172.844 210.282C172.959 210.445 173.103 210.573 173.274 210.668C173.445 210.759 173.645 210.805 173.872 210.805C174.097 210.805 174.293 210.759 174.462 210.668C174.633 210.573 174.775 210.445 174.887 210.282C175 210.12 175.084 209.933 175.14 209.724C175.199 209.511 175.229 209.285 175.229 209.046V208.944C175.229 208.707 175.199 208.484 175.14 208.274C175.084 208.062 174.998 207.874 174.883 207.711C174.771 207.546 174.629 207.416 174.457 207.321C174.289 207.227 174.091 207.18 173.864 207.18C173.639 207.18 173.441 207.227 173.27 207.321C173.101 207.416 172.959 207.546 172.844 207.711C172.732 207.874 172.648 208.062 172.592 208.274C172.535 208.484 172.507 208.707 172.507 208.944ZM180.157 204.507H180.831C180.831 204.797 180.786 205.027 180.698 205.198C180.609 205.367 180.488 205.497 180.334 205.589C180.184 205.68 180.012 205.75 179.82 205.797C179.631 205.844 179.435 205.89 179.231 205.934C178.977 205.987 178.74 206.072 178.522 206.187C178.306 206.299 178.12 206.459 177.963 206.666C177.81 206.872 177.696 207.141 177.622 207.472C177.551 207.803 177.532 208.212 177.564 208.7V209.108H176.891V208.7C176.891 208.153 176.942 207.676 177.046 207.268C177.152 206.861 177.301 206.516 177.493 206.236C177.686 205.955 177.913 205.732 178.176 205.566C178.442 205.401 178.734 205.287 179.054 205.225C179.284 205.181 179.482 205.133 179.647 205.083C179.813 205.03 179.938 204.959 180.024 204.871C180.113 204.782 180.157 204.661 180.157 204.507ZM179.187 206.869C179.5 206.869 179.779 206.924 180.024 207.033C180.269 207.143 180.478 207.295 180.649 207.49C180.82 207.685 180.95 207.915 181.039 208.181C181.131 208.444 181.177 208.731 181.177 209.041V209.139C181.177 209.473 181.128 209.783 181.03 210.069C180.936 210.353 180.795 210.601 180.609 210.814C180.426 211.024 180.201 211.188 179.936 211.306C179.673 211.424 179.373 211.483 179.036 211.483C178.699 211.483 178.398 211.424 178.132 211.306C177.869 211.188 177.644 211.024 177.458 210.814C177.272 210.601 177.13 210.353 177.033 210.069C176.938 209.783 176.891 209.473 176.891 209.139V209.041C176.891 208.967 176.904 208.895 176.931 208.824C176.957 208.753 176.99 208.681 177.028 208.607C177.069 208.533 177.106 208.455 177.139 208.372C177.248 208.106 177.397 207.859 177.587 207.632C177.779 207.404 178.008 207.221 178.274 207.082C178.542 206.94 178.847 206.869 179.187 206.869ZM179.027 207.539C178.726 207.539 178.477 207.608 178.282 207.747C178.09 207.886 177.947 208.07 177.852 208.301C177.758 208.528 177.711 208.775 177.711 209.041V209.139C177.711 209.363 177.737 209.576 177.79 209.777C177.844 209.978 177.923 210.157 178.03 210.313C178.139 210.467 178.276 210.588 178.442 210.677C178.61 210.765 178.808 210.81 179.036 210.81C179.263 210.81 179.46 210.765 179.625 210.677C179.791 210.588 179.927 210.467 180.033 210.313C180.139 210.157 180.219 209.978 180.272 209.777C180.326 209.576 180.352 209.363 180.352 209.139V209.041C180.352 208.84 180.326 208.65 180.272 208.469C180.219 208.289 180.138 208.13 180.029 207.991C179.922 207.852 179.785 207.743 179.616 207.663C179.451 207.58 179.254 207.539 179.027 207.539ZM185.281 208.673V209.338H182.745V208.673H185.281ZM182.918 206.595V211.39H182.098V206.595H182.918ZM185.945 206.595V211.39H185.121V206.595H185.945ZM189.256 211.479C188.922 211.479 188.619 211.423 188.348 211.31C188.079 211.195 187.847 211.034 187.652 210.827C187.46 210.62 187.312 210.375 187.209 210.092C187.105 209.808 187.053 209.498 187.053 209.161V208.975C187.053 208.585 187.111 208.237 187.226 207.933C187.342 207.626 187.498 207.366 187.696 207.153C187.894 206.94 188.119 206.779 188.37 206.67C188.621 206.561 188.881 206.506 189.15 206.506C189.493 206.506 189.788 206.565 190.036 206.683C190.287 206.801 190.493 206.967 190.652 207.18C190.812 207.389 190.93 207.638 191.007 207.924C191.084 208.208 191.122 208.518 191.122 208.855V209.223H187.541V208.554H190.302V208.492C190.29 208.279 190.246 208.072 190.169 207.871C190.095 207.67 189.977 207.505 189.815 207.375C189.652 207.245 189.431 207.18 189.15 207.18C188.964 207.18 188.792 207.22 188.636 207.299C188.479 207.376 188.345 207.491 188.232 207.645C188.12 207.799 188.033 207.986 187.971 208.208C187.909 208.429 187.878 208.685 187.878 208.975V209.161C187.878 209.388 187.909 209.603 187.971 209.803C188.036 210.001 188.129 210.176 188.25 210.326C188.374 210.477 188.523 210.595 188.698 210.681C188.875 210.767 189.076 210.81 189.301 210.81C189.59 210.81 189.835 210.75 190.036 210.632C190.237 210.514 190.413 210.356 190.564 210.158L191.06 210.552C190.957 210.709 190.825 210.858 190.666 211C190.506 211.142 190.31 211.257 190.076 211.346C189.846 211.434 189.572 211.479 189.256 211.479ZM194.069 211.479C193.736 211.479 193.433 211.423 193.161 211.31C192.892 211.195 192.66 211.034 192.465 210.827C192.273 210.62 192.125 210.375 192.022 210.092C191.918 209.808 191.867 209.498 191.867 209.161V208.975C191.867 208.585 191.924 208.237 192.04 207.933C192.155 207.626 192.311 207.366 192.509 207.153C192.707 206.94 192.932 206.779 193.183 206.67C193.434 206.561 193.694 206.506 193.963 206.506C194.306 206.506 194.601 206.565 194.85 206.683C195.101 206.801 195.306 206.967 195.466 207.18C195.625 207.389 195.743 207.638 195.82 207.924C195.897 208.208 195.935 208.518 195.935 208.855V209.223H192.354V208.554H195.115V208.492C195.104 208.279 195.059 208.072 194.982 207.871C194.909 207.67 194.79 207.505 194.628 207.375C194.465 207.245 194.244 207.18 193.963 207.18C193.777 207.18 193.606 207.22 193.449 207.299C193.292 207.376 193.158 207.491 193.046 207.645C192.933 207.799 192.846 207.986 192.784 208.208C192.722 208.429 192.691 208.685 192.691 208.975V209.161C192.691 209.388 192.722 209.603 192.784 209.803C192.849 210.001 192.942 210.176 193.063 210.326C193.187 210.477 193.337 210.595 193.511 210.681C193.688 210.767 193.889 210.81 194.114 210.81C194.403 210.81 194.649 210.75 194.85 210.632C195.05 210.514 195.226 210.356 195.377 210.158L195.873 210.552C195.77 210.709 195.638 210.858 195.479 211C195.319 211.142 195.123 211.257 194.889 211.346C194.659 211.434 194.386 211.479 194.069 211.479ZM202.397 208.673V209.338H199.862V208.673H202.397ZM200.035 206.595V211.39H199.215V206.595H200.035ZM203.062 206.595V211.39H202.238V206.595H203.062ZM207.211 210.57V208.102C207.211 207.912 207.172 207.748 207.095 207.61C207.022 207.468 206.909 207.358 206.759 207.282C206.608 207.205 206.422 207.166 206.2 207.166C205.993 207.166 205.812 207.202 205.655 207.273C205.501 207.344 205.38 207.437 205.292 207.552C205.206 207.667 205.163 207.791 205.163 207.924H204.343C204.343 207.753 204.387 207.583 204.476 207.415C204.565 207.246 204.692 207.094 204.857 206.958C205.026 206.819 205.227 206.71 205.46 206.63C205.696 206.547 205.959 206.506 206.249 206.506C206.598 206.506 206.905 206.565 207.171 206.683C207.44 206.801 207.649 206.98 207.8 207.22C207.954 207.456 208.031 207.753 208.031 208.11V210.344C208.031 210.504 208.044 210.674 208.07 210.854C208.1 211.034 208.143 211.189 208.199 211.319V211.39H207.344C207.302 211.296 207.27 211.17 207.246 211.013C207.222 210.854 207.211 210.706 207.211 210.57ZM207.352 208.483L207.361 209.059H206.533C206.299 209.059 206.091 209.078 205.908 209.116C205.724 209.152 205.571 209.207 205.447 209.28C205.323 209.354 205.228 209.447 205.163 209.56C205.098 209.669 205.065 209.798 205.065 209.945C205.065 210.096 205.099 210.233 205.167 210.357C205.235 210.482 205.337 210.581 205.473 210.654C205.612 210.725 205.782 210.761 205.983 210.761C206.234 210.761 206.456 210.708 206.648 210.601C206.84 210.495 206.992 210.365 207.104 210.211C207.219 210.058 207.282 209.908 207.29 209.764L207.641 210.158C207.62 210.282 207.564 210.42 207.472 210.57C207.381 210.721 207.258 210.866 207.104 211.005C206.954 211.14 206.773 211.254 206.564 211.346C206.357 211.434 206.123 211.479 205.863 211.479C205.538 211.479 205.253 211.415 205.008 211.288C204.766 211.161 204.576 210.991 204.441 210.779C204.308 210.563 204.241 210.322 204.241 210.056C204.241 209.799 204.291 209.573 204.392 209.378C204.492 209.18 204.637 209.016 204.826 208.886C205.015 208.753 205.243 208.653 205.509 208.585C205.775 208.517 206.072 208.483 206.4 208.483H207.352ZM213.491 210.805C213.686 210.805 213.866 210.765 214.032 210.685C214.197 210.606 214.333 210.496 214.439 210.357C214.546 210.216 214.606 210.055 214.621 209.874H215.401C215.386 210.158 215.29 210.422 215.113 210.668C214.939 210.91 214.71 211.106 214.426 211.257C214.142 211.405 213.831 211.479 213.491 211.479C213.13 211.479 212.816 211.415 212.547 211.288C212.281 211.161 212.059 210.987 211.882 210.765C211.708 210.544 211.576 210.289 211.488 210.003C211.402 209.713 211.359 209.408 211.359 209.085V208.899C211.359 208.577 211.402 208.273 211.488 207.986C211.576 207.697 211.708 207.441 211.882 207.22C212.059 206.998 212.281 206.824 212.547 206.697C212.816 206.569 213.13 206.506 213.491 206.506C213.866 206.506 214.194 206.583 214.475 206.736C214.756 206.887 214.976 207.094 215.135 207.357C215.298 207.617 215.386 207.912 215.401 208.243H214.621C214.606 208.045 214.55 207.867 214.453 207.707C214.358 207.548 214.228 207.42 214.063 207.326C213.9 207.228 213.71 207.18 213.491 207.18C213.24 207.18 213.028 207.23 212.857 207.33C212.689 207.428 212.554 207.561 212.454 207.729C212.356 207.895 212.285 208.079 212.241 208.283C212.2 208.484 212.179 208.69 212.179 208.899V209.085C212.179 209.295 212.2 209.502 212.241 209.706C212.282 209.91 212.352 210.094 212.449 210.26C212.55 210.425 212.684 210.558 212.853 210.659C213.024 210.756 213.237 210.805 213.491 210.805ZM219.151 210.57V208.102C219.151 207.912 219.112 207.748 219.035 207.61C218.962 207.468 218.849 207.358 218.699 207.282C218.548 207.205 218.362 207.166 218.14 207.166C217.933 207.166 217.752 207.202 217.595 207.273C217.441 207.344 217.32 207.437 217.232 207.552C217.146 207.667 217.103 207.791 217.103 207.924H216.283C216.283 207.753 216.327 207.583 216.416 207.415C216.505 207.246 216.632 207.094 216.797 206.958C216.966 206.819 217.167 206.71 217.4 206.63C217.636 206.547 217.899 206.506 218.189 206.506C218.538 206.506 218.845 206.565 219.111 206.683C219.38 206.801 219.589 206.98 219.74 207.22C219.894 207.456 219.971 207.753 219.971 208.11V210.344C219.971 210.504 219.984 210.674 220.011 210.854C220.04 211.034 220.083 211.189 220.139 211.319V211.39H219.284C219.242 211.296 219.21 211.17 219.186 211.013C219.163 210.854 219.151 210.706 219.151 210.57ZM219.293 208.483L219.301 209.059H218.473C218.239 209.059 218.031 209.078 217.848 209.116C217.664 209.152 217.511 209.207 217.387 209.28C217.263 209.354 217.168 209.447 217.103 209.56C217.038 209.669 217.006 209.798 217.006 209.945C217.006 210.096 217.04 210.233 217.107 210.357C217.175 210.482 217.277 210.581 217.413 210.654C217.552 210.725 217.722 210.761 217.923 210.761C218.174 210.761 218.396 210.708 218.588 210.601C218.78 210.495 218.932 210.365 219.044 210.211C219.16 210.058 219.222 209.908 219.23 209.764L219.581 210.158C219.56 210.282 219.504 210.42 219.412 210.57C219.321 210.721 219.198 210.866 219.044 211.005C218.894 211.14 218.713 211.254 218.504 211.346C218.297 211.434 218.063 211.479 217.803 211.479C217.478 211.479 217.193 211.415 216.948 211.288C216.706 211.161 216.517 210.991 216.381 210.779C216.248 210.563 216.181 210.322 216.181 210.056C216.181 209.799 216.231 209.573 216.332 209.378C216.432 209.18 216.577 209.016 216.766 208.886C216.955 208.753 217.183 208.653 217.449 208.585C217.715 208.517 218.012 208.483 218.34 208.483H219.293ZM222.147 210.092L224.358 206.595H225.183V211.39H224.358V207.893L222.147 211.39H221.331V206.595H222.147V210.092ZM223.911 204.857H224.576C224.576 205.088 224.522 205.293 224.416 205.473C224.31 205.651 224.157 205.789 223.96 205.89C223.762 205.99 223.527 206.041 223.255 206.041C222.844 206.041 222.519 205.931 222.28 205.713C222.043 205.491 221.925 205.206 221.925 204.857H222.59C222.59 205.032 222.64 205.185 222.741 205.318C222.841 205.451 223.013 205.518 223.255 205.518C223.491 205.518 223.66 205.451 223.76 205.318C223.861 205.185 223.911 205.032 223.911 204.857ZM228.454 206.595V211.39H227.629V206.595H228.454ZM230.062 206.595V207.259H226.051V206.595H230.062ZM232.505 211.479C232.171 211.479 231.868 211.423 231.596 211.31C231.327 211.195 231.095 211.034 230.9 210.827C230.708 210.62 230.56 210.375 230.457 210.092C230.354 209.808 230.302 209.498 230.302 209.161V208.975C230.302 208.585 230.359 208.237 230.475 207.933C230.59 207.626 230.747 207.366 230.944 207.153C231.142 206.94 231.367 206.779 231.618 206.67C231.869 206.561 232.129 206.506 232.398 206.506C232.741 206.506 233.036 206.565 233.285 206.683C233.536 206.801 233.741 206.967 233.901 207.18C234.06 207.389 234.178 207.638 234.255 207.924C234.332 208.208 234.37 208.518 234.37 208.855V209.223H230.789V208.554H233.551V208.492C233.539 208.279 233.494 208.072 233.418 207.871C233.344 207.67 233.226 207.505 233.063 207.375C232.901 207.245 232.679 207.18 232.398 207.18C232.212 207.18 232.041 207.22 231.884 207.299C231.727 207.376 231.593 207.491 231.481 207.645C231.368 207.799 231.281 207.986 231.219 208.208C231.157 208.429 231.126 208.685 231.126 208.975V209.161C231.126 209.388 231.157 209.603 231.219 209.803C231.284 210.001 231.377 210.176 231.498 210.326C231.623 210.477 231.772 210.595 231.946 210.681C232.123 210.767 232.324 210.81 232.549 210.81C232.838 210.81 233.084 210.75 233.285 210.632C233.486 210.514 233.661 210.356 233.812 210.158L234.308 210.552C234.205 210.709 234.074 210.858 233.914 211C233.754 211.142 233.558 211.257 233.325 211.346C233.094 211.434 232.821 211.479 232.505 211.479ZM240.602 210.459V204.582H241.426V211.39H240.673L240.602 210.459ZM237.375 209.046V208.952C237.375 208.586 237.42 208.254 237.508 207.955C237.6 207.654 237.729 207.395 237.894 207.18C238.062 206.964 238.262 206.798 238.492 206.683C238.726 206.565 238.986 206.506 239.272 206.506C239.574 206.506 239.837 206.559 240.061 206.666C240.289 206.769 240.481 206.921 240.637 207.122C240.797 207.32 240.923 207.559 241.014 207.84C241.106 208.121 241.169 208.438 241.205 208.793V209.201C241.172 209.552 241.109 209.868 241.014 210.149C240.923 210.43 240.797 210.669 240.637 210.867C240.481 211.065 240.289 211.217 240.061 211.324C239.834 211.427 239.568 211.479 239.264 211.479C238.983 211.479 238.726 211.418 238.492 211.297C238.262 211.176 238.062 211.006 237.894 210.787C237.729 210.569 237.6 210.312 237.508 210.016C237.42 209.718 237.375 209.394 237.375 209.046ZM238.2 208.952V209.046C238.2 209.285 238.223 209.509 238.271 209.719C238.321 209.929 238.398 210.114 238.501 210.273C238.605 210.433 238.736 210.558 238.896 210.65C239.055 210.739 239.246 210.783 239.467 210.783C239.739 210.783 239.962 210.725 240.137 210.61C240.314 210.495 240.456 210.343 240.562 210.154C240.668 209.964 240.751 209.759 240.81 209.538V208.469C240.775 208.307 240.723 208.15 240.655 208C240.59 207.846 240.504 207.71 240.398 207.592C240.295 207.471 240.166 207.375 240.013 207.304C239.862 207.233 239.683 207.197 239.476 207.197C239.252 207.197 239.058 207.245 238.896 207.339C238.736 207.431 238.605 207.558 238.501 207.72C238.398 207.88 238.321 208.066 238.271 208.279C238.223 208.489 238.2 208.713 238.2 208.952ZM246.275 210.716V211.39H242.787V210.716H246.275ZM246.147 207.175L242.973 211.39H242.472V210.787L245.624 206.595H246.147V207.175ZM245.783 206.595V207.273H242.508V206.595H245.783ZM249.125 211.479C248.791 211.479 248.488 211.423 248.216 211.31C247.947 211.195 247.716 211.034 247.52 210.827C247.328 210.62 247.181 210.375 247.077 210.092C246.974 209.808 246.922 209.498 246.922 209.161V208.975C246.922 208.585 246.98 208.237 247.095 207.933C247.21 207.626 247.367 207.366 247.565 207.153C247.763 206.94 247.987 206.779 248.238 206.67C248.49 206.561 248.75 206.506 249.019 206.506C249.361 206.506 249.657 206.565 249.905 206.683C250.156 206.801 250.361 206.967 250.521 207.18C250.681 207.389 250.799 207.638 250.876 207.924C250.952 208.208 250.991 208.518 250.991 208.855V209.223H247.41V208.554H250.171V208.492C250.159 208.279 250.115 208.072 250.038 207.871C249.964 207.67 249.846 207.505 249.683 207.375C249.521 207.245 249.299 207.18 249.019 207.18C248.832 207.18 248.661 207.22 248.504 207.299C248.348 207.376 248.213 207.491 248.101 207.645C247.989 207.799 247.902 207.986 247.84 208.208C247.778 208.429 247.747 208.685 247.747 208.975V209.161C247.747 209.388 247.778 209.603 247.84 209.803C247.905 210.001 247.998 210.176 248.119 210.326C248.243 210.477 248.392 210.595 248.566 210.681C248.744 210.767 248.945 210.81 249.169 210.81C249.459 210.81 249.704 210.75 249.905 210.632C250.106 210.514 250.282 210.356 250.432 210.158L250.929 210.552C250.825 210.709 250.694 210.858 250.534 211C250.375 211.142 250.178 211.257 249.945 211.346C249.714 211.434 249.441 211.479 249.125 211.479ZM252.768 207.618V211.39H251.948V206.595H252.724L252.768 207.618ZM252.573 208.811L252.232 208.797C252.235 208.469 252.284 208.167 252.378 207.889C252.473 207.608 252.606 207.364 252.777 207.157C252.948 206.951 253.152 206.791 253.389 206.679C253.628 206.564 253.892 206.506 254.182 206.506C254.418 206.506 254.631 206.538 254.82 206.603C255.009 206.666 255.17 206.766 255.303 206.905C255.439 207.044 255.543 207.224 255.614 207.446C255.684 207.664 255.72 207.932 255.72 208.248V211.39H254.896V208.239C254.896 207.988 254.859 207.787 254.785 207.636C254.711 207.483 254.603 207.372 254.461 207.304C254.319 207.233 254.145 207.197 253.938 207.197C253.734 207.197 253.548 207.24 253.38 207.326C253.214 207.412 253.071 207.53 252.95 207.68C252.832 207.831 252.739 208.004 252.671 208.199C252.606 208.391 252.573 208.595 252.573 208.811ZM256.979 210.956C256.979 210.817 257.021 210.7 257.107 210.606C257.196 210.508 257.323 210.459 257.488 210.459C257.654 210.459 257.779 210.508 257.865 210.606C257.954 210.7 257.998 210.817 257.998 210.956C257.998 211.092 257.954 211.207 257.865 211.301C257.779 211.396 257.654 211.443 257.488 211.443C257.323 211.443 257.196 211.396 257.107 211.301C257.021 211.207 256.979 211.092 256.979 210.956ZM260.179 207.348V211.39H259.359V206.595H260.156L260.179 207.348ZM261.677 206.568L261.672 207.33C261.604 207.316 261.539 207.307 261.477 207.304C261.418 207.298 261.35 207.295 261.273 207.295C261.084 207.295 260.917 207.324 260.772 207.384C260.628 207.443 260.505 207.525 260.405 207.632C260.304 207.738 260.224 207.865 260.165 208.013C260.109 208.158 260.072 208.317 260.054 208.492L259.824 208.625C259.824 208.335 259.852 208.063 259.908 207.809C259.967 207.555 260.057 207.33 260.179 207.135C260.3 206.937 260.453 206.784 260.64 206.674C260.829 206.562 261.053 206.506 261.313 206.506C261.372 206.506 261.44 206.513 261.517 206.528C261.594 206.54 261.647 206.553 261.677 206.568ZM265.369 210.282V206.595H266.193V211.39H265.408L265.369 210.282ZM265.524 209.272L265.865 209.263C265.865 209.582 265.831 209.877 265.763 210.149C265.698 210.418 265.592 210.651 265.444 210.849C265.296 211.047 265.103 211.203 264.863 211.315C264.624 211.424 264.333 211.479 263.99 211.479C263.757 211.479 263.543 211.445 263.348 211.377C263.155 211.309 262.99 211.204 262.851 211.062C262.712 210.92 262.604 210.736 262.528 210.508C262.454 210.281 262.417 210.007 262.417 209.688V206.595H263.237V209.697C263.237 209.913 263.26 210.092 263.308 210.233C263.358 210.372 263.424 210.483 263.507 210.566C263.593 210.646 263.687 210.702 263.791 210.734C263.897 210.767 264.006 210.783 264.119 210.783C264.467 210.783 264.744 210.716 264.947 210.583C265.151 210.448 265.298 210.266 265.386 210.038C265.478 209.808 265.524 209.552 265.524 209.272Z" fill="#B5B5B5"/>
<path d="M286.675 196.978V211.408H284.851V199.255L281.174 200.595V198.949L286.389 196.978H286.675Z" fill="#B5B5B5"/>
<path d="M299.036 197.037H299.193V198.584H299.036C298.07 198.584 297.261 198.742 296.611 199.057C295.96 199.366 295.444 199.784 295.063 200.309C294.682 200.828 294.406 201.413 294.235 202.064C294.071 202.714 293.989 203.375 293.989 204.045V206.155C293.989 206.792 294.064 207.357 294.215 207.85C294.367 208.336 294.574 208.747 294.836 209.082C295.099 209.417 295.395 209.67 295.724 209.841C296.059 210.012 296.407 210.097 296.768 210.097C297.189 210.097 297.564 210.018 297.892 209.861C298.221 209.696 298.497 209.47 298.72 209.181C298.95 208.885 299.124 208.537 299.243 208.136C299.361 207.735 299.42 207.295 299.42 206.815C299.42 206.388 299.367 205.977 299.262 205.583C299.157 205.182 298.996 204.827 298.779 204.518C298.562 204.203 298.29 203.956 297.961 203.779C297.639 203.595 297.255 203.503 296.808 203.503C296.302 203.503 295.829 203.628 295.388 203.878C294.955 204.121 294.597 204.443 294.314 204.844C294.038 205.238 293.88 205.668 293.841 206.135L292.875 206.125C292.967 205.389 293.138 204.761 293.387 204.242C293.644 203.717 293.959 203.289 294.334 202.961C294.715 202.626 295.139 202.383 295.605 202.231C296.078 202.074 296.578 201.995 297.104 201.995C297.82 201.995 298.438 202.13 298.957 202.399C299.476 202.668 299.903 203.03 300.238 203.483C300.573 203.93 300.82 204.436 300.977 205.001C301.142 205.56 301.224 206.135 301.224 206.726C301.224 207.403 301.129 208.037 300.938 208.629C300.747 209.22 300.462 209.739 300.08 210.186C299.706 210.633 299.243 210.981 298.691 211.231C298.139 211.481 297.498 211.605 296.768 211.605C295.993 211.605 295.316 211.448 294.738 211.132C294.16 210.81 293.68 210.383 293.299 209.851C292.918 209.319 292.632 208.727 292.441 208.077C292.251 207.426 292.155 206.766 292.155 206.095V205.238C292.155 204.226 292.257 203.234 292.461 202.261C292.665 201.288 293.016 200.408 293.516 199.619C294.022 198.831 294.721 198.203 295.615 197.737C296.509 197.27 297.649 197.037 299.036 197.037Z" fill="#B5B5B5"/>
<path d="M312.806 203.71V205.425H302.969V203.71H312.806ZM308.804 199.521V209.969H306.98V199.521H308.804Z" fill="#B5B5B5"/>
</svg>
